<?xml version="1.0" encoding="UTF-8"?>
<svg id="Layer_2" data-name="Layer 2" xmlns="http://www.w3.org/2000/svg" viewBox="0 0 548.92 160.53">
  <defs>
    <style>
      .cls-1 {
        fill: #fff;
        stroke-width: 0px;
      }
    </style>
  </defs>
  <g id="Layer_1-2" data-name="Layer 1">
    <g>
      <path class="cls-1" d="M104.91,137.06c3.88,3.65,7.62,7.18,11.44,10.78-.4.19-.7.37-1.02.48-11.01,4.01-22.03,8.01-33.03,12.04-.92.34-1.48.18-2.19-.49-13.34-12.6-26.71-25.16-40.07-37.74-9.02-8.49-18.04-17-27.06-25.49-3.93-3.7-7.85-7.4-11.79-11.09-.29-.27-.65-.46-1.2-.83,4.13-1.51,7.86-2.88,11.73-4.29-3.86-3.64-7.61-7.17-11.5-10.84,3.86-1.41,7.57-2.76,11.5-4.2-3.86-3.64-7.61-7.18-11.5-10.85,17.54-6.39,34.93-12.72,52.51-19.12-2.73-2.59-5.35-5.08-8.13-7.71,3.88-1.42,7.6-2.78,11.49-4.2-3.84-3.62-7.59-7.16-11.49-10.84,2.58-.95,4.98-1.85,7.39-2.73,8.94-3.26,17.89-6.5,26.83-9.77.75-.28,1.23-.25,1.86.35,6.52,6.19,13.09,12.34,19.64,18.5.38.35.77.7,1.35,1.22-3.92,1.44-7.63,2.79-11.54,4.22,3.85,3.64,7.61,7.18,11.49,10.85-3.88,1.42-7.61,2.79-11.5,4.21,1.98,1.85,3.84,3.65,5.77,5.35.27.24.97.19,1.38.04,6.82-2.45,13.64-4.9,20.43-7.45,1.22-.46,1.94-.31,2.9.6,10.9,10.34,21.86,20.62,32.8,30.92,2.41,2.27,4.82,4.54,7.36,6.94-3.86,1.41-7.58,2.78-11.49,4.21,3.84,3.62,7.61,7.17,11.5,10.84-3.86,1.41-7.58,2.77-11.5,4.2,3.86,3.65,7.62,7.19,11.5,10.86-17.54,6.39-34.94,12.72-52.52,19.12,2.76,2.61,5.4,5.11,8.15,7.71-3.87,1.41-7.56,2.76-11.5,4.19ZM155.47,75.22c-1.77-1.66-3.39-3.18-5.01-4.7-10.47-9.86-20.95-19.71-31.39-29.61-.77-.73-1.37-.79-2.3-.44-7.21,2.66-14.44,5.26-21.66,7.89-1.89.69-3.76,1.4-5.76,2.14,6.61,6.22,13.09,12.32,19.65,18.51-.3.13-.43.19-.57.24-11.35,4.14-22.69,8.28-34.05,12.38-.35.13-1-.07-1.3-.34-6.25-5.83-12.47-11.7-18.7-17.55-.77-.73-1.56-1.44-2.47-2.28,10.83-3.95,21.38-7.78,32.03-11.66-.23-.26-.34-.41-.48-.54-5.44-5.12-10.89-10.23-16.3-15.38-.66-.63-1.19-.64-1.99-.35-17.78,6.49-35.57,12.95-53.35,19.42-2.05.74-4.08,1.51-6.27,2.32,3.03,2.86,5.92,5.6,8.82,8.33,14.17,13.34,28.35,26.67,42.53,40.01,8.24,7.75,16.47,15.5,24.69,23.27.57.54,1.04.63,1.78.36,6.77-2.5,13.56-4.95,20.34-7.42,2.41-.88,4.82-1.77,7.38-2.71-6.61-6.22-13.08-12.33-19.68-18.55,21.42-7.8,42.66-15.53,64.06-23.32ZM5.53,85.35c2.64,2.48,5.17,4.85,7.7,7.22,12.36,11.64,24.73,23.28,37.09,34.93,10.33,9.73,20.66,19.45,30.96,29.21.77.73,1.38.9,2.39.52,7.65-2.84,15.33-5.61,22.99-8.41,1.44-.52,2.87-1.07,4.41-1.65-3.02-2.84-5.91-5.53-8.75-8.28-.56-.54-1.01-.56-1.68-.32-6.2,2.28-12.41,4.53-18.61,6.82-.69.26-1.11.17-1.65-.35-5.97-5.66-11.99-11.27-17.98-16.91-10.97-10.32-21.94-20.65-32.9-30.98-5-4.71-10-9.44-15.02-14.13-.29-.27-.86-.58-1.16-.47-2.56.86-5.09,1.81-7.79,2.79ZM5.55,70.3c1.76,1.66,3.39,3.18,5.01,4.71,10.86,10.22,21.72,20.43,32.57,30.65,12.8,12.06,25.61,24.11,38.39,36.19.65.62,1.16.66,1.97.36,5.6-2.08,11.23-4.09,16.85-6.14,3.53-1.28,7.06-2.58,10.76-3.93-2.92-2.74-5.75-5.32-8.46-8.02-.81-.8-1.46-.79-2.4-.44-6.06,2.24-12.13,4.44-18.19,6.67-.62.23-1.04.23-1.57-.28-5.63-5.33-11.29-10.62-16.94-15.93-10.92-10.27-21.83-20.54-32.74-30.82-5.44-5.12-10.88-10.25-16.35-15.35-.32-.3-1.01-.52-1.4-.39-2.45.82-4.87,1.75-7.5,2.71ZM49.98,13.34c.26.28.41.46.58.62,5.49,5.18,11,10.34,16.47,15.54.52.49.93.37,1.49.16,8.86-3.24,17.73-6.46,26.6-9.69.35-.13.69-.29,1.05-.44-.11-.19-.14-.27-.2-.32-5.61-5.29-11.22-10.58-16.86-15.83-.27-.25-.95-.29-1.34-.15-6.26,2.25-12.51,4.54-18.76,6.82-2.97,1.09-5.95,2.17-9.03,3.29ZM96.71,99.26c2.97,2.79,5.82,5.4,8.6,8.1.69.67,1.23.75,2.09.44,12.95-4.74,25.9-9.45,38.86-14.17,3.02-1.1,6.04-2.21,9.16-3.35-.27-.28-.44-.49-.63-.67-2.62-2.47-5.25-4.91-7.84-7.41-.69-.67-1.26-.8-2.19-.46-10.69,3.94-21.4,7.82-32.11,11.72-5.24,1.91-10.48,3.82-15.93,5.81ZM108.28,110.11c2.74,2.6,5.37,5.09,8.12,7.7-3.89,1.43-7.62,2.8-11.37,4.18.68,1.11,1.36,1.23,2.48.82,11.81-4.36,23.64-8.64,35.47-12.94,4.11-1.49,8.22-2.99,12.74-4.64-.55-.37-.92-.55-1.21-.82-2.54-2.37-5.1-4.73-7.58-7.16-.71-.69-1.29-.79-2.19-.45-8.56,3.15-17.13,6.25-25.7,9.38-3.54,1.29-7.07,2.59-10.76,3.94ZM57.37,62.11c.22.28.33.44.47.57,2.79,2.63,5.56,5.28,8.4,7.86.3.28,1.03.33,1.45.19,2.53-.86,5.03-1.8,7.54-2.72,2.87-1.05,5.75-2.09,8.77-3.2-3.11-2.93-6.1-5.75-9.12-8.54-.21-.2-.74-.24-1.05-.13-5.44,1.95-10.87,3.93-16.46,5.96ZM96.3,34.59c-2.62-2.48-5.15-4.68-7.45-7.12-1.44-1.54-2.8-1.97-4.61-.88-.3.18-.67.25-1.01.37-4.48,1.63-8.95,3.26-13.46,4.91.09.18.11.31.19.38,2.87,2.72,5.74,5.44,8.65,8.11.28.25.95.3,1.35.17,2.23-.75,4.43-1.57,6.63-2.38,3.17-1.16,6.34-2.32,9.71-3.56ZM92.16,72.51c-1.99-1.89-3.83-3.66-5.7-5.39-.19-.18-.61-.31-.84-.23-2.57.91-5.12,1.86-7.81,2.84,1.98,1.86,3.82,3.62,5.7,5.35.22.2.68.33.94.24,2.51-.88,5-1.82,7.71-2.81ZM64.28,31.21c-1.99-1.88-3.81-3.61-5.66-5.31-.22-.21-.67-.39-.92-.31-2.55.89-5.08,1.84-7.79,2.83,2.02,1.91,3.92,3.72,5.84,5.5.15.14.53.18.74.1,2.55-.9,5.09-1.84,7.78-2.82ZM95.53,60.62c-2.04-1.92-3.94-3.72-5.87-5.49-.16-.14-.53-.18-.75-.11-2.54.9-5.06,1.83-7.76,2.81,2.04,1.91,3.94,3.71,5.87,5.48.16.14.52.19.73.12,2.54-.9,5.06-1.82,7.77-2.81ZM89.33,65.53c2.04,1.91,3.93,3.72,5.88,5.47.2.18.74.14,1.06.03,2.07-.72,4.12-1.49,6.17-2.25.38-.14.75-.29,1.25-.48-2.02-1.9-3.87-3.66-5.75-5.39-.19-.17-.61-.27-.84-.19-2.54.89-5.07,1.82-7.76,2.8ZM68.83,73c2.05,1.93,3.94,3.73,5.86,5.51.14.13.45.19.62.13,1.74-.6,3.46-1.24,5.34-1.93-2.03-1.9-3.9-3.68-5.82-5.41-.22-.19-.74-.21-1.06-.1-1.58.53-3.13,1.13-4.95,1.8ZM81.15,42.79c1.99,1.87,3.85,3.62,5.72,5.35.19.18.59.33.81.26,1.72-.58,3.41-1.22,5.29-1.91-2.02-1.91-3.89-3.69-5.79-5.44-.17-.16-.55-.24-.76-.17-1.72.59-3.43,1.23-5.27,1.91ZM78,54.6c-.04.12-.07.24-.11.36.56.26,1.22.86,1.65.72,2.56-.81,5.07-1.79,7.7-2.75-.65-.88-1.18-1.35-2.31-.89-2.27.94-4.62,1.71-6.94,2.55Z"/>
      <path class="cls-1" d="M359.92,142.42h7.76c-.12,1.33-.04,2.56,1.19,3.3.38.23.83.5,1.25.5,3.24.04,6.48.08,9.72-.03.63-.02,1.27-.64,1.85-1.05,1.32-.93,1.74-2.2,1.64-3.83-.14-2.31-.03-4.64-.04-6.96,0-.38-.04-.76-.07-1.38-1.65,1.51-3.08,2.89-4.59,4.18-.38.33-.96.58-1.46.59-3.68.05-7.36.05-11.04,0-.52,0-1.14-.31-1.53-.68-1.9-1.83-3.75-3.71-5.57-5.62-.32-.33-.56-.88-.56-1.34-.04-6.32-.04-12.64,0-18.95,0-.45.22-1.02.54-1.34,1.82-1.91,3.68-3.78,5.58-5.61.38-.37,1.01-.65,1.53-.66,3.84-.05,7.68-.06,11.52,0,.56,0,1.21.33,1.64.71,1.46,1.3,2.83,2.68,4.48,4.27v-4.93h7.26c.02.44.05.83.05,1.21,0,13.32,0,26.63.02,39.95,0,.78-.22,1.33-.78,1.87-1.91,1.82-3.74,3.72-5.66,5.54-.36.34-.96.61-1.45.62-5.48.04-10.96.05-16.43,0-.52,0-1.15-.3-1.54-.67-1.55-1.45-2.99-3-4.53-4.46-.6-.57-.86-1.16-.81-1.99.07-1.03.02-2.07.02-3.24ZM366.24,120.55c0,1.52.16,3.06-.04,4.55-.29,2.26.43,3.97,2.25,5.24.49.34,1.09.68,1.65.7,2.04.08,4.08.07,6.12,0,.5-.02,1.11-.23,1.47-.56,1.73-1.6,3.42-3.25,5.08-4.92.27-.28.49-.75.5-1.13.04-2.8.03-5.6,0-8.4,0-.29-.09-.67-.29-.86-1.7-1.63-3.23-3.6-5.23-4.7-1.33-.73-3.35-.2-5.07-.23-.2,0-.41.03-.6,0-2.19-.41-3.9.37-5.12,2.17-.35.52-.67,1.17-.7,1.77-.08,2.12-.03,4.24-.03,6.36Z"/>
      <path class="cls-1" d="M194.54,62.82v17.34h-7.88v-47.93h1.28c8.91,0,17.83,0,26.74-.01.77,0,1.33.19,1.88.76,1.85,1.93,3.78,3.79,5.63,5.73.34.36.59.95.6,1.44.04,4.88.05,9.75,0,14.63,0,.52-.29,1.15-.65,1.53-1.84,1.94-3.72,3.86-5.66,5.7-.46.44-1.23.77-1.85.77-6.2.06-12.39.03-18.59.03h-1.5ZM194.58,56.01c.48,0,.91,0,1.34,0,4.47,0,8.95-.12,13.42.05,2.11.08,3.74-.39,4.92-2.13.33-.49.63-1.1.65-1.66.07-2.55-.11-5.12.07-7.67.15-2.05-.32-3.68-2.05-4.82-.56-.37-1.23-.78-1.85-.78-5.11-.06-10.22-.04-15.34-.04h-1.15v17.04Z"/>
      <path class="cls-1" d="M269.27,31.32h7.74v20.07c1.71-1.63,3.2-2.99,4.6-4.42.61-.62,1.21-.89,2.09-.87,3.44.05,6.88,0,10.31.05.52,0,1.16.28,1.54.65,1.91,1.82,3.77,3.69,5.6,5.6.34.35.59.95.6,1.44.04,6.24.04,12.47,0,18.71,0,.49-.26,1.09-.6,1.44-1.85,1.93-3.75,3.83-5.68,5.68-.33.32-.88.56-1.34.56-5.72.04-11.43.04-17.15,0-.45,0-1.01-.25-1.34-.56-2.01-1.95-3.97-3.94-5.91-5.96-.29-.3-.52-.82-.52-1.24-.03-13.55-.02-27.11-.01-40.66,0-.12.03-.23.07-.49ZM293.92,63.24c0-1.56-.13-3.13.03-4.67.23-2.09-.36-3.69-2.05-4.97-.6-.45-1.08-.82-1.88-.79-1.8.06-3.6-.02-5.39.05-.49.02-1.08.27-1.44.61-1.88,1.8-3.71,3.63-5.51,5.51-.34.36-.58.95-.59,1.45-.06,2.48.12,4.97-.07,7.43-.16,2.1.43,3.66,2.07,4.97.67.54,1.25.84,2.11.83,2.32-.05,4.65-.17,6.95.03,2.12.19,3.67-.46,4.97-2.09.5-.62.84-1.15.82-1.99-.06-2.12-.02-4.24-.02-6.35Z"/>
      <path class="cls-1" d="M309.45,31.34h7.63v106.39h-7.63V31.34Z"/>
      <path class="cls-1" d="M294.58,126.74h7.66c0,1.37.03,2.68-.02,3.99,0,.27-.25.57-.47.78-1.91,1.93-3.82,3.87-5.78,5.76-.3.29-.82.5-1.24.5-5.76.03-11.52.03-17.27,0-.45,0-1.01-.24-1.34-.56-1.92-1.86-3.81-3.76-5.66-5.7-.31-.33-.52-.9-.53-1.35-.03-6.32-.03-12.64,0-18.95,0-.46.23-1.02.55-1.35,1.85-1.94,3.73-3.85,5.65-5.71.35-.34.96-.58,1.45-.59,5.6-.04,11.2-.04,16.79,0,.52,0,1.16.28,1.55.64,1.98,1.86,3.91,3.78,5.82,5.71.26.26.5.66.51,1,.03,4.04.02,8.07.02,12.25h-24.49c0,1.88-.07,3.62.03,5.36.05.91,2.51,2.71,3.47,2.71,3.12,0,6.24,0,9.36,0,1.87,0,3.78-1.84,3.85-3.69,0-.23.05-.46.09-.8ZM294.37,117.41c.32-2.66.53-5.18-2.07-6.79-.44-.27-.96-.57-1.44-.58-3.16-.05-6.31-.03-9.47-.03-.99,0-3.54,2.11-3.59,3.08-.07,1.42-.02,2.85-.02,4.32h16.59Z"/>
      <path class="cls-1" d="M423.8,126.74h7.69c0,1.39.03,2.78-.03,4.15-.01.3-.34.61-.58.86-1.8,1.82-3.59,3.65-5.44,5.41-.36.34-.95.6-1.44.6-5.72.04-11.44.04-17.16,0-.46,0-1.02-.23-1.35-.54-1.95-1.89-3.87-3.82-5.75-5.79-.29-.3-.48-.82-.49-1.24-.03-6.36-.03-12.72,0-19.07,0-.45.25-1,.57-1.33,1.85-1.93,3.74-3.84,5.67-5.7.33-.31.89-.53,1.35-.54,5.64-.04,11.28-.04,16.92,0,.49,0,1.1.24,1.45.58,1.95,1.83,3.85,3.72,5.74,5.62.29.29.61.72.62,1.08.04,4.07.03,8.14.03,12.33h-24.54c0,1.83-.09,3.54.03,5.24.08,1.02,2.59,2.81,3.66,2.81,3.08,0,6.16,0,9.24,0,1.91,0,3.71-1.79,3.75-3.74,0-.2.02-.39.05-.75ZM423.67,117.41c.2-2.58.59-5.1-1.95-6.73-.47-.3-1.03-.62-1.56-.64-2.56-.07-5.13.12-7.67-.08-1.98-.15-3.47.39-4.61,1.98-.27.38-.76.74-.79,1.14-.1,1.42-.04,2.85-.04,4.32h16.61Z"/>
      <path class="cls-1" d="M548.73,123.21h-24.41c0,1.8-.05,3.47.02,5.13.04.9,2.53,2.89,3.47,2.89,3.16,0,6.32,0,9.47,0,1.89,0,3.77-1.83,3.81-3.7,0-.23.02-.47.04-.78h7.66c0,1.36.03,2.67-.02,3.98-.01.31-.26.65-.5.89-1.85,1.88-3.7,3.76-5.6,5.59-.33.32-.89.55-1.35.56-5.76.04-11.51.04-17.27,0-.46,0-1.02-.24-1.35-.56-1.91-1.87-3.79-3.79-5.63-5.73-.29-.3-.47-.83-.48-1.26-.03-6.36-.03-12.71,0-19.07,0-.45.23-1.01.55-1.34,1.82-1.91,3.67-3.79,5.57-5.62.38-.36,1.02-.63,1.55-.64,5.6-.05,11.19-.04,16.79,0,.49,0,1.09.25,1.45.58,1.99,1.9,3.94,3.86,5.87,5.83.25.26.47.67.48,1.02.03,3.92.01,7.84,0,11.75,0,.11-.06.22-.13.46ZM541.09,117.38c0-1.44.23-2.85-.08-4.13-.22-.89-1.2-1.58-1.81-2.39-.53-.72-1.2-.89-2.07-.87-3.04.05-6.08.02-9.11.02-1.03,0-3.62,2.12-3.68,3.13-.08,1.39-.02,2.78-.02,4.24h16.77Z"/>
      <path class="cls-1" d="M325.28,46.17h7.62v91.53h-7.62V46.17Z"/>
      <path class="cls-1" d="M204.47,103.6h7.17v5.79c.1.04.21.08.31.12,1.68-1.69,3.38-3.36,5.01-5.09.63-.67,1.28-.92,2.19-.91,2.84.05,5.68-.02,8.52.05.6.02,1.32.3,1.75.7,2.03,1.92,4,3.92,5.95,5.93.32.33.62.87.62,1.31.04,8.52.03,17.04.02,25.55,0,.19-.04.38-.07.65h-7.81v-1.29c0-7.48,0-14.96,0-22.43,0-1.59-2.16-3.73-3.77-3.73-.64,0-1.29.08-1.92-.02-2.27-.36-3.93.47-5.37,2.24-1.23,1.51-2.76,2.78-4.07,4.23-.4.45-.71,1.16-.71,1.75-.05,5.96-.03,11.92-.03,17.87,0,.43,0,.86,0,1.37h-7.78v-34.11Z"/>
      <path class="cls-1" d="M470.85,137.73h-7.74v-1.46c0-7.44,0-14.87,0-22.31,0-1.66-2.07-3.71-3.76-3.71-.24,0-.49.04-.72,0-3.22-.63-5.57.68-7.49,3.18-.94,1.23-2.19,2.22-3.21,3.39-.37.43-.66,1.09-.67,1.65-.05,5.96-.03,11.91-.03,17.87,0,.43,0,.87,0,1.38h-7.68v-34.09h7.13v6.09c1.47-1.47,2.81-2.6,3.89-3.94,1.45-1.81,3.15-2.52,5.48-2.29,2.22.22,4.47,0,6.71.07.53.02,1.18.25,1.56.61,2.05,1.96,4.05,3.98,6.03,6.01.3.31.6.8.6,1.2.03,8.63.02,17.27.01,25.9,0,.11-.05.23-.11.44Z"/>
      <path class="cls-1" d="M252.58,46.18h7.75v33.96h-7.19v-6.07c-.98.96-1.75,1.73-2.53,2.49-1.26,1.22-2.35,2.87-3.86,3.52-1.42.61-3.3.18-4.98.17-2,0-4.21.48-5.93-.22-1.68-.68-2.74-2.74-4.27-3.94-2.23-1.74-2.84-3.84-2.76-6.63.2-7.27.07-14.56.07-21.84,0-.44,0-.87,0-1.41h7.86v1.36c0,7.4.01,14.8-.02,22.2,0,.82.29,1.37.8,2,1.21,1.51,2.66,1.89,4.57,1.94,2.26.05,3.94-.5,5.4-2.26,1.32-1.6,2.95-2.93,4.35-4.46.4-.44.7-1.16.71-1.76.05-5.88.03-11.76.03-17.64,0-.43,0-.87,0-1.4Z"/>
      <path class="cls-1" d="M502.54,125.28h7.84c0,1.82.02,3.6-.02,5.39,0,.26-.27.56-.48.77-1.9,1.94-3.81,3.88-5.76,5.77-.33.32-.89.55-1.34.56-5.48.04-10.95.04-16.43,0-.45,0-1.01-.25-1.34-.57-1.91-1.87-3.79-3.78-5.63-5.73-.32-.33-.54-.9-.55-1.36-.04-6.32-.04-12.63,0-18.95,0-.49.26-1.09.6-1.45,1.78-1.89,3.61-3.73,5.48-5.54.35-.34.95-.6,1.44-.61,5.48-.04,10.95-.04,16.43,0,.45,0,1.01.24,1.34.56,1.95,1.89,3.85,3.83,5.75,5.78.23.24.48.59.49.89.05,1.71.02,3.42.02,5.22h-7.63c-.03-.2-.12-.4-.09-.58.29-1.78-.37-3.09-1.77-4.23-.76-.62-1.42-1-2.42-.97-2.56.07-5.12.07-7.67,0-1.04-.03-1.75.34-2.52,1.01-1.28,1.1-1.79,2.29-1.73,4.02.14,3.99.07,7.99.03,11.99,0,.83.34,1.35.84,1.97,1.24,1.56,2.74,2.04,4.69,1.89,2.23-.16,4.48.01,6.71-.07.61-.02,1.26-.36,1.78-.72,1.69-1.18,2.58-2.76,1.94-5.04Z"/>
      <path class="cls-1" d="M373.44,58.55h-7.69c-.03-.14-.12-.29-.09-.43.44-2.17-.58-3.66-2.27-4.81-.34-.23-.76-.45-1.15-.46-3.04-.04-6.08-.07-9.11.02-.57.02-1.15.54-1.68.9-1.52,1-1.87,2.43-1.81,4.21.13,3.91.06,7.83.03,11.75,0,.82.3,1.35.8,1.99,1.27,1.61,2.81,2.08,4.8,1.94,2.19-.16,4.4.01,6.59-.07.6-.02,1.25-.35,1.78-.7,1.79-1.19,2.49-2.89,1.93-5.08h7.86c0,1.82.02,3.64-.02,5.46,0,.26-.3.54-.52.76-1.85,1.88-3.69,3.77-5.59,5.6-.35.34-.96.58-1.45.58-5.48.04-10.95.04-16.43,0-.52,0-1.15-.3-1.53-.66-1.84-1.77-3.64-3.59-5.4-5.45-.34-.35-.57-.96-.57-1.45-.04-6.32-.04-12.63,0-18.95,0-.49.24-1.1.57-1.45,1.81-1.91,3.68-3.78,5.57-5.62.3-.29.82-.49,1.24-.5,5.56-.03,11.11-.03,16.67,0,.42,0,.93.22,1.23.52,1.81,1.75,3.55,3.57,5.36,5.32.66.64.93,1.31.9,2.22-.06,1.43-.02,2.86-.02,4.36Z"/>
      <path class="cls-1" d="M265.12,103.5v6.66h-10.39c0,.54,0,.96,0,1.38,0,5.12.03,10.24-.03,15.36-.01,1.13.33,1.9,1.1,2.72,1.04,1.1,2.1,1.63,3.64,1.51,1.86-.14,3.74-.03,5.67-.03v6.68c-.58,0-1.09,0-1.59,0-3,0-6,.02-9-.02-.46,0-1.03-.2-1.36-.51-1.96-1.88-3.89-3.8-5.76-5.77-.33-.35-.51-.98-.51-1.48-.03-6.12-.02-12.24-.02-18.36,0-.43,0-.87,0-1.42h-6.12c0-2.17-.02-4.23.04-6.28,0-.15.61-.39.94-.4,1.71-.04,3.43-.02,5.28-.02v-11.02h7.69v10.98h10.42Z"/>
      <path class="cls-1" d="M194.76,137.74h-7.84v-47.93h7.84v47.93Z"/>
      <path class="cls-1" d="M350.66,137.72h-7.72v-34.11h7.72v34.11Z"/>
      <path class="cls-1" d="M445.42,78.4c.22,1.53.02,1.78-1.45,1.85-2,.09-3.05-.9-3.08-2.92-.02-.96-.04-1.92,0-2.88.04-.87-.08-1.61-.74-2.29-.28-.29-.35-.96-.27-1.42.34-1.91,1.46-3.26,3.27-3.95,1.89-.73,3.83-.75,5.74-.1,2.38.82,3.66,2.67,3.73,5.28.03,1.16-.03,2.32.02,3.48.08,1.75,1.22,2.82,2.92,2.82,1.62,0,2.84-1.07,2.9-2.73.08-2.23.02-4.47.02-6.76-.39-.08-.72-.15-1.09-.23v-1.92h3.73v2.31c0,2.12.02,4.24,0,6.36-.04,2.78-1.91,4.77-4.69,4.91-.91.05-1.85.04-2.73-.17-2.44-.58-3.62-2.12-3.7-4.62-.04-1.4.03-2.8-.11-4.19-.17-1.69-1.55-2.82-3.38-2.98-1.76-.15-3.4.82-3.89,2.35-.09.28-.07.78.11.94.68.61.73,1.37.7,2.18-.03.76,0,1.52,0,2.28,0,1.93.12,2.06,1.99,2.39Z"/>
      <path class="cls-1" d="M420.88,78.4c.14,1.69-1.07,2.4-2.86,1.7-1.11-.43-1.69-1.31-1.72-2.5-.03-1.12-.02-2.24,0-3.36.01-.77-.08-1.41-.65-2.06-.34-.4-.34-1.28-.2-1.88.43-1.8,1.63-2.99,3.37-3.58,1.95-.67,3.92-.66,5.85.1,2.16.86,3.36,2.69,3.37,5.03,0,1.16-.03,2.32.02,3.48.07,1.83,1.2,2.94,2.94,2.95,1.68.02,2.83-1.02,2.9-2.83.08-2.19.02-4.39.02-6.64-.37-.09-.69-.16-1.03-.24v-1.93h3.55c0,3.34.12,6.65-.05,9.94-.08,1.56-1.26,2.64-2.73,3.21-1.78.7-3.59.7-5.37-.01-1.87-.75-2.78-2.2-2.84-4.18-.04-1.28.02-2.56-.02-3.84-.05-1.81-1.02-2.93-2.82-3.35-1.78-.42-3.59.29-4.36,1.71-.36.65-.42,1.23.18,1.84.29.3.45.81.48,1.25.07.95.02,1.92.02,2.88,0,1.92.09,2.03,1.96,2.32Z"/>
      <path class="cls-1" d="M400.33,68.8c-.37-.08-.66-.15-1.02-.23v-1.95h3.65c0,2.81-.02,5.56,0,8.31.03,2.54,2.17,3.98,4.55,3.11,1.31-.48,1.93-1.49,1.93-3.24,0-4.48,0-8.96,0-13.44,0-.47.04-.93.06-1.45h2.47c.03.44.08.86.09,1.28,0,4.64,0,9.28,0,13.92,0,2.95-1.8,4.89-4.74,5.09-.87.06-1.77.1-2.63-.04-2.87-.47-4.37-2.29-4.38-5.21,0-2.04,0-4.07,0-6.15Z"/>
      <path class="cls-1" d="M521.14,77.82v-8.92q-1.15-.45-.96-2.26h3.57v5.64c.91,0,1.66.06,2.4-.03.33-.04.7-.33.9-.61.85-1.21,1.73-2.41,2.41-3.71.58-1.11,1.33-1.58,2.55-1.39.34.05.7,0,1.28,0-1.26,1.94-2.41,3.72-3.55,5.49.12.12.17.21.23.21,2.47.15,2.94.65,2.94,3.14,0,.8,0,1.59,0,2.45,1.62.1.95,1.21,1.08,2.09h-3.71c0-1.38-.03-2.77,0-4.15.02-1.02-.49-1.49-1.44-1.5-1.63-.03-3.27,0-4.99,0v3.56c1.44.1.97,1.15.96,2.08h-4.64c-.02-.86-.68-1.93.94-2.08Z"/>
      <path class="cls-1" d="M507.72,78.32c-.21.65-.37,1.13-.53,1.63h-3.02c.19-.75-.73-1.74.71-2.09.12-.03.21-.4.22-.61.01-2.79,0-5.59,0-8.4-1.56-.26-.82-1.37-.97-2.24h3.61v1.13c0,2.4.06,4.8-.03,7.19-.03.97.27,1.69,1.06,2.08,1.01.51,2.07,1.07,3.16,1.22,1.46.2,2.27-.6,2.32-2.08.08-2.43.02-4.86.02-7.35-.36-.08-.69-.16-1.03-.24v-1.93h3.52c.03.27.09.58.09.88,0,3.12.01,6.23,0,9.35,0,2.05-1.17,3.21-3.23,3.39-2.18.18-4.1-.39-5.91-1.93Z"/>
      <path class="cls-1" d="M536.11,66.61h3.65c0,2.77,0,5.48,0,8.19,0,2.37,3.5,4.37,5.52,3.09.48-.3.9-1.08.92-1.66.1-2.43.04-4.87.04-7.39-.34-.1-.66-.19-1.02-.29v-1.94h3.6c.02.47.06.93.06,1.4,0,2.56-.12,5.12.03,7.67.27,4.53-2.64,4.99-5.82,4.38-1.17-.22-2.24-.95-3.43-1.48-.28,2.43-2.18,1.1-3.55,1.42v-1.96c.9.01,1.06-.49,1.04-1.3-.05-2.63-.02-5.27-.02-7.94-.37-.08-.66-.15-1.02-.23v-1.96Z"/>
      <path class="cls-1" d="M329.51,41.61c-1.49-.09-2.48.13-3.42-.81-1.29-1.29-2.3-2.51-1.97-4.5.14-.86.14-1.61.81-2.36,1.36-1.51,2.87-2.03,4.91-2,1.72.03,2.35,1.26,3.4,2.06,1.29.98.52,2.36.76,3.55.29,1.43-.9,1.97-1.57,2.85-.89,1.19-2.05,1.37-2.92,1.21Z"/>
      <path class="cls-1" d="M346.71,98.87c-1.8.66-2.71-.68-3.88-1.62-1.34-1.07-.88-2.44-.91-3.73-.02-.58.08-1.33.43-1.74,1.28-1.49,2.65-2.6,4.95-2.42,1.6.12,2.34,1.05,3.4,1.84,1.42,1.06.92,2.48,1.02,3.81.05.73-.02,1.36-.65,1.92-1.26,1.13-2.29,2.66-4.36,1.93Z"/>
      <path class="cls-1" d="M485.22,70.56c-.24-2.08-3.2-3.33-4.88-2.14-1.1.79-.94,2.3.38,2.88,1.24.54,2.53.95,3.81,1.41,2.09.76,2.99,1.9,2.89,3.72-.1,1.86-1.19,3.2-3.22,3.65-1.96.43-3.87.25-5.66-.82-1.27-.76-1.91-1.74-1.4-3.29h1.48c.62,2,2.65,3.1,4.66,2.38.59-.21,1.22-.89,1.42-1.49.29-.83-.4-1.38-1.17-1.68-1.26-.49-2.54-.94-3.8-1.43-2.04-.8-2.88-2.03-2.73-3.98.13-1.66,1.32-2.96,3.26-3.34,1.8-.35,3.56-.23,5.2.77,1.29.79,1.81,1.84,1.35,3.37h-1.6Z"/>
      <path class="cls-1" d="M489.59,78.1c.28-.49.58-1,.91-1.58,1.43,1.17,2.93,2.07,4.74,1.67.92-.21,1.91-.7,2.56-1.37,1.63-1.69,1.56-5.31.04-7.12-1.62-1.92-3.91-1.86-7.37.24-.29-.51-.59-1.02-.87-1.51,2.36-2.7,7.3-2.94,9.92-.54,2.67,2.45,2.77,7.92.19,10.6-2.43,2.53-7.49,2.37-10.12-.39Z"/>
      <path class="cls-1" d="M469.67,78.09c1.06.1,1.16-.46,1.14-1.24-.05-1.95,0-3.91-.03-5.87-.04-2.08-1.42-3.18-3.43-2.58-1.07.32-2.04.98-3.08,1.5-1.03-1.54-1.02-1.63.7-2.64,1.77-1.04,3.67-1.3,5.64-.74,1.82.52,2.76,1.82,2.78,3.71.02,2.55,0,5.1,0,7.71.41.07.75.12,1.12.18v1.77h-4.77c-.02-.53-.05-1.06-.08-1.81Z"/>
      <path class="cls-1" d="M546.82,82.72h1.99c0,1.6.06,3.15-.04,4.68-.03.42-.48.91-.87,1.2-1.16.86-3.59.79-4.78-.01-.86-.58-.93-1.43-.86-2.33.09-1.16-.23-1.91-1.67-1.72v-1.74c2.78-.48,3.72.26,3.72,2.96,0,.94.24,1.64,1.27,1.61,1.01-.03,1.29-.72,1.25-1.66-.05-.95-.01-1.91-.01-2.98Z"/>
      <path class="cls-1" d="M425.53,81.62h2.38c.43,2.48,1.69,3.27,4.33,2.6,1.13-.29,2.19-.88,3.4-1.38.22.38.48.85.78,1.38-2.36,1.85-4.97,2.64-7.86,2.12-2.38-.43-3.31-1.96-3.03-4.72Z"/>
      <path class="cls-1" d="M450.17,81.62h2.29c.64,2.59,1.74,3.28,4.35,2.6,1.14-.3,2.2-.88,3.38-1.38.19.32.46.79.72,1.24-1.4,1.91-6.41,3.19-8.98,1.88-1.56-.8-2.16-2.19-1.76-4.34Z"/>
      <path class="cls-1" d="M401.36,59.39h2.12c.07.1.14.15.14.22.14,2.17-.1,2.17,2.38,2.15.95,0,1.91,0,2.96,0v2.11c-1.95,0-3.86.07-5.76-.03-1.05-.05-1.77-.71-1.83-1.85-.04-.83,0-1.66,0-2.59Z"/>
      <path class="cls-1" d="M548.8,63.8h-2.19v-4.98h2.19v4.98Z"/>
    </g>
  </g>
</svg>