<?xml version="1.0" encoding="UTF-8"?>
<svg id="Layer_2" data-name="Layer 2" xmlns="http://www.w3.org/2000/svg" viewBox="0 0 1920.62 561.79">
  <defs>
    <style>
      .cls-1 {
        fill: #fefefe;
      }

      .cls-1, .cls-2, .cls-3, .cls-4, .cls-5, .cls-6 {
        stroke-width: 0px;
      }

      .cls-2 {
        fill: #317dbe;
      }

      .cls-3 {
        fill: #0f0e0e;
      }

      .cls-4 {
        fill: #fcb31d;
      }

      .cls-5 {
        fill: #f9b019;
      }

      .cls-6 {
        fill: #2d7cbd;
      }
    </style>
  </defs>
  <g id="Layer_1-2" data-name="Layer 1">
    <path class="cls-1" d="M1082.14,295.23v111.24c0,23.45.08,46.89-.08,70.34-.02,3.53.96,4.56,4.45,4.39,5.65-.29,11.35-.45,16.97.03,4.98.43,5.92-1.32,5.91-6.02-.14-120.06-.11-240.11-.11-360.17,0-.83-.08-1.67.01-2.49.32-2.64-.86-3.47-3.43-3.42-6.16.13-12.35.39-18.48-.07-4.67-.35-5.35,1.41-5.35,5.59.13,60.19.09,120.39.09,180.58ZM1137.5,320.77c0,51.53.05,103.07-.09,154.6-.01,4.33.76,6.3,5.62,5.86,5.29-.47,10.67-.44,15.96,0,4.78.39,6.07-1.03,6.06-5.92-.16-102.9-.12-205.8-.12-308.7,0-.66-.08-1.34.01-1.99.42-2.95-1.02-3.69-3.73-3.62-5.99.15-12,.33-17.97-.05-4.53-.28-5.87,1.05-5.85,5.73.18,51.37.11,102.73.11,154.1ZM1563.87,382.15c-.39-.17-.78-.34-1.17-.5,0-5.44-.12-10.88.05-16.31.09-2.74-.68-3.89-3.62-3.8-6.16.18-12.33.16-18.48,0-2.81-.07-3.72.85-3.71,3.71.08,37.42.08,74.83,0,112.25,0,2.86.91,3.75,3.72,3.68,6.49-.17,13-.25,19.48.03,3.65.16,4.41-1.24,4.38-4.58-.14-17.13.49-34.28-.28-51.37-.46-10.16,1.12-18.58,9.93-24.63,1.34-.92,2.44-2.29,3.38-3.64,6.92-9.93,16.23-13.49,28.24-11.95,6.89.88,14.13,7.25,14.13,14.21,0,25.61.1,51.22-.1,76.83-.03,4.26,1.27,5.38,5.33,5.15,5.81-.33,11.66-.29,17.48-.01,3.78.18,5.13-.76,5.1-4.87-.19-28.43-.13-56.87-.05-85.31,0-2.68-.66-4.68-2.64-6.59-6.82-6.59-13.51-13.32-20.14-20.1-1.88-1.92-3.85-2.82-6.58-2.79-10.16.13-20.32.14-30.48-.01-2.78-.04-4.66.97-6.51,2.89-5.76,5.98-11.65,11.83-17.49,17.74ZM884.02,259.46c.41.26.82.52,1.23.78,0,5.42.2,10.84-.07,16.25-.17,3.37,1.04,4.25,4.24,4.12,5.65-.23,11.33-.25,16.98,0,3.44.15,4.59-.87,4.55-4.42-.19-13.63-.08-27.27-.08-40.9,0-23.11-.09-46.22.09-69.33.03-3.96-1.11-5.24-5.06-5.03-5.81.31-11.66.28-17.48,0-3.76-.18-5.2.7-5.13,4.87.27,14.96.13,29.92.1,44.89-.02,6.97,1.72,14.72-.76,20.7-2.47,5.98-9.72,9.81-13.98,15.27-6.73,8.63-14.87,12.05-25.8,10.78-7.59-.89-14.69-7.09-14.69-14.69,0-25.77-.06-51.54.07-77.31.02-3.45-.9-4.66-4.45-4.51-6.15.27-12.33.3-18.47,0-3.9-.19-4.71,1.3-4.69,4.89.13,28.93.1,57.86.02,86.79,0,2.71.78,4.68,2.73,6.57,6.34,6.13,12.58,12.36,18.72,18.69,1.88,1.94,3.82,2.77,6.54,2.73,9.99-.14,19.98-.24,29.97.04,3.7.1,6.23-1.08,8.66-3.72,5.46-5.94,11.16-11.65,16.77-17.46ZM740.5,383.65c0-7.17-.12-12.65.05-18.13.09-2.78-.81-3.82-3.68-3.74-5.99.17-11.99.17-17.98,0-2.8-.08-3.73.85-3.73,3.69.08,37.4.08,74.8-.01,112.2,0,3.06,1.26,3.54,3.87,3.49,6.32-.13,12.66-.24,18.97.04,3.53.16,4.47-.95,4.43-4.44-.18-15.79.91-31.66-.38-47.35-1.13-13.85,3.59-23.35,13.41-32.88,8.52-8.27,16.58-13.12,28.6-11.52,6.73.9,14.1,7.43,14.1,14.28,0,25.43.09,50.86-.09,76.3-.03,4.09.57,6.03,5.31,5.65,5.79-.47,11.65-.3,17.47-.04,3.39.15,4.54-.73,4.53-4.34-.15-28.92-.11-57.85-.04-86.77,0-2.34-.64-4.04-2.33-5.68-6.79-6.62-13.51-13.31-20.13-20.09-1.77-1.81-3.62-2.55-6.15-2.52-9.99.11-19.98.16-29.96-.02-3.24-.06-5.62.81-7.88,3.2-5.66,6.01-11.57,11.79-18.4,18.68ZM1674.76,421.53c0,10.48.1,20.95-.06,31.43-.05,3.21.76,5.57,3.15,7.86,6.12,5.87,12.01,11.98,17.88,18.11,1.66,1.73,3.45,2.24,5.76,2.23,18.99-.07,37.97-.06,56.96-.01,2.1,0,3.79-.38,5.35-1.99,6.27-6.44,12.69-12.72,19.01-19.12,1.5-1.52,2.93-3.02,2.82-5.55-.2-4.65-.18-9.31-.01-13.96.1-2.69-.99-3.44-3.52-3.38-5.49.13-10.99.04-16.49.04q-7.66,0-7.75,7.54c-.06,5.56-7.56,13.09-13.16,13.11-9.83.04-19.65.04-29.48,0-4.84-.02-12.81-7.67-12.82-12.38-.05-15.96-.05-31.93,0-47.89.02-4.66,7.7-12.35,12.36-12.38,10.33-.07,20.65-.02,30.98-.03,1.34,0,2.6,0,3.68,1.08,4.46,4.5,10.47,8.09,8.49,16.06-.62,2.48.67,3.54,3.31,3.49,6.99-.13,13.99-.13,20.98,0,2.63.05,3.5-.92,3.41-3.49-.16-4.48-.14-8.98,0-13.47.07-2.19-.7-3.74-2.23-5.25-6.5-6.44-12.96-12.92-19.32-19.5-1.76-1.83-3.62-2.55-6.14-2.54-18.49.09-36.97.08-55.46,0-2.67-.01-4.75.61-6.65,2.61-5.97,6.26-11.97,12.5-18.22,18.47-2.31,2.2-2.9,4.49-2.87,7.47.13,10.48.05,20.95.05,31.43ZM1195.91,220.82c0,10.8.08,21.61-.05,32.41-.03,2.7.71,4.67,2.68,6.56,6.11,5.88,12.13,11.86,18,17.98,2.03,2.11,4.14,2.84,7.01,2.82,13.15-.13,26.39-1.03,39.43.21,14.38,1.37,24.46-3.3,34.05-14.1,6.83-7.68,11.2-14.65,9.58-24.82-.08-.49-.05-1,0-1.49.25-2.68-.68-3.9-3.64-3.82-6.82.18-13.65.2-20.47,0-3.02-.09-3.8,1.13-3.52,3.8.14,1.32.04,2.66.02,3.99-.07,4.98-7.87,12.89-12.88,12.92-10.15.05-20.31.06-30.46,0-4.55-.03-12.6-8.18-12.61-12.75-.04-15.79-.04-31.58,0-47.37.01-4.58,8.04-12.52,12.68-12.54,10.15-.05,20.31-.03,30.46,0,1.46,0,2.95-.27,4.21.98,4.49,4.46,10.48,8.03,8.63,15.96-.65,2.78.76,3.75,3.58,3.68,6.82-.16,13.65-.12,20.47-.02,2.54.04,3.62-.82,3.54-3.45-.14-4.65-.1-9.31-.01-13.96.04-2.05-1-3.38-2.33-4.72-6.2-6.26-12.42-12.51-18.49-18.9-2.1-2.21-4.3-3.23-7.41-3.21-18.48.12-36.95.11-55.43,0-2.75-.02-4.67.87-6.53,2.81-5.88,6.11-11.83,12.16-17.92,18.07-1.96,1.9-2.7,3.88-2.67,6.58.13,10.8.05,21.61.05,32.41ZM863.41,421.58c0,10.8.04,21.61-.04,32.41-.02,2.28.41,4.08,2.15,5.77,6.57,6.37,13.01,12.86,19.45,19.35,1.23,1.24,2.45,2.04,4.31,2.03,11.65-.06,23.3-.11,34.95.02,2.88.03,3.23-1.33,3.18-3.66-.1-5.32-.18-10.64.03-15.95.11-2.9-.95-3.68-3.72-3.61-6.82.17-13.65.09-20.47.04-4.62-.04-12.1-7.27-12.12-11.83-.05-19.11.05-38.23-.09-57.34-.02-3.18,1.06-3.91,4.02-3.86,9.32.16,18.64-.1,27.96.14,3.56.09,4.61-1.07,4.43-4.51-.26-4.97-.3-9.98.01-14.95.22-3.52-1.27-4.16-4.34-4.11-8.82.15-17.66-.25-26.46.17-4.82.23-5.79-1.51-5.64-5.89.31-9.3-.06-18.61.17-27.92.09-3.55-.65-5.09-4.6-4.86-5.97.34-11.99.35-17.97,0-3.97-.24-4.67,1.3-4.59,4.84.22,9.47-.11,18.95.17,28.42.12,4.02-.84,5.73-5.17,5.37-4.46-.37-8.98.02-13.47-.12-2.56-.08-3.54.8-3.47,3.43.15,5.65.13,11.3.01,16.95-.05,2.42.91,3.19,3.23,3.13,4.66-.12,9.33.16,13.98-.1,3.32-.19,4.23.99,4.17,4.21-.18,10.8-.07,21.6-.07,32.41ZM681.54,397.36c0-26.26-.13-52.53.12-78.79.04-4.59-1.33-5.6-5.58-5.35-6.14.36-12.32.28-18.47.02-3.37-.14-4.18,1.04-4.15,4.24.15,15.62.07,31.25.07,46.88,0,37.07.1,74.14-.12,111.21-.03,4.75,1.42,5.92,5.85,5.65,5.8-.36,11.67-.36,17.47,0,4.12.26,4.9-1.28,4.88-5.05-.15-26.26-.08-52.53-.08-78.79ZM1226.9,421.37c0-18.45-.09-36.9.08-55.35.03-3.47-.93-4.63-4.45-4.49-6.48.26-12.98.15-19.47.04-2.56-.04-3.92.38-3.91,3.48.09,37.56.08,75.12.02,112.69,0,2.6.82,3.48,3.42,3.43,6.66-.14,13.32-.24,19.97.03,3.55.14,4.46-1.04,4.43-4.49-.16-18.45-.08-36.9-.08-55.35ZM1526.87,250c.1,0,.2,0,.31,0v-8.97c0-8.56,0-8.69-8.46-8.44-1.54.05-4.58-1.86-4.69,1.53-.06,1.98-2.23,5.75,2.71,5.76.98,0,1.14,1.01,1.13,1.89-.12,7.8.17,15.63-.5,23.38-.48,5.55-5.17,8.67-10.54,8.23-5.53-.44-8.98-4.07-9.15-9.8-.11-3.98.04-7.97-.04-11.96-.16-7.3-2.92-13.35-9.47-16.94-8.4-4.6-17.2-4.6-25.82-.59-6.04,2.81-9.05,8.01-9.99,14.51-.18,1.23-.32,2.51.71,3.21,3.53,2.41,2.93,5.97,2.93,9.41,0,3.49-.2,6.99.06,10.46.55,7.21,8.49,11.35,14.89,8.11,2.07-1.05,1.58-2.6,1.74-4.18.17-1.8-.72-2.3-2.35-2.25-3.81.12-4.75-2.19-4.67-5.49.09-3.82-.05-7.64.05-11.46.05-2.09-.14-4.09-1.93-5.37-2.59-1.86-1.77-3.95-.62-6.06,2.65-4.87,8.97-7.26,15.14-5.81,6.09,1.44,9.52,5.46,9.66,11.52.1,4.32-.04,8.64.03,12.96.15,8.93,5.84,15.33,14.7,16.67,11.67,1.77,21.04-2.76,23.72-11.5.29-.93.45-1.94.46-2.92.04-5.31.02-10.61.02-15.92ZM1612.81,250.48v-8.98c0-9.25,0-9.29-9.46-8.98-1.22.04-3.53-1.07-3.42,1.39.08,1.96-1.72,4.78,1.55,5.82,1.32.42,2.03.89,2.01,2.3-.08,7.81.19,15.63-.33,23.41-.35,5.13-5.04,8.28-10.29,7.94-5.35-.35-9.05-3.91-9.26-9.18-.16-4.15.07-8.31-.06-12.47-.24-7.88-3.36-14.18-10.72-17.71-7.95-3.81-16.16-3.7-24.11-.2-6.23,2.74-9.55,7.97-10.49,14.73-.2,1.45-.13,2.74,1.04,3.6,2.82,2.09,2.76,5,2.66,8.04-.11,3.49-.11,6.98,0,10.47.21,7.7,7.32,12.22,14.43,9.39,2.23-.89,2.2-2.46,2.28-4.36.1-2.27-1.19-2.29-2.83-2.32-3.18-.05-4.31-1.94-4.22-4.9.07-2.16.07-4.32,0-6.48-.14-4.35,1.17-9.04-3.18-12.4-1.31-1.02-.3-2.39.25-3.61,2.37-5.29,8.29-8.2,14.49-7.06,6.63,1.22,10.54,5.42,10.72,11.73.12,4.32-.02,8.64.03,12.97.11,8.9,5.84,15.42,14.64,16.72,11.61,1.72,20.64-2.53,23.62-10.99.58-1.63.64-3.24.64-4.9.02-4.65,0-9.31,0-13.96ZM1441.67,238.81c0-7.98-.13-15.95.06-23.92.09-3.72.05-6-5.05-5.89-4.73.1-4.79,2.05-4.76,5.63.15,15.78.09,31.57.05,47.35-.02,7.02-4.31,11.42-10.95,11.42-6.69,0-11.15-4.3-11.29-11.17-.14-6.81-.04-13.62-.04-20.44,0-9.54,0-9.57-9.78-9.26-1.39.04-3.87-1.03-3.63,1.82.16,1.9-1.8,4.94,2.13,5.47,2.38.32,1.54,2.22,1.55,3.52.08,6.65-.06,13.29.07,19.94.15,7.62,4.25,13.39,11.4,15.86,5.95,2.06,12.05,2.19,18.09.3,7.91-2.47,12.05-7.98,12.13-16.2.07-8.14.02-16.28.02-24.42ZM1865.34,232.98c-7.46-2.04-12.21.27-15.18,6.89-1.41,3.14-4.17,5.68-5.56,8.82-2.36,5.32-6.95,4.21-10.61,3.5-3.45-.67-.92-4.45-1.51-6.77-.28-1.09-.05-2.32-.05-3.48,0-9.65,0-9.69-9.64-9.41-1.38.04-3.87-1.08-3.75,1.67.08,1.9-1.84,4.98,1.98,5.55,2.04.31,1.71,1.68,1.71,2.94.02,8.81.02,17.62,0,26.44,0,1.08.43,2.72-1.16,2.84-4.45.35-2.56,3.69-2.5,5.64.11,3.37,3.07,1.51,4.69,1.69,2.96.33,5.99.16,8.98.06,1.3-.04,3.49.76,3.17-1.75-.24-1.85,1.7-4.6-1.51-5.44-1.45-.38-1.77-.97-1.98-2.28-1.44-9.02-.52-10.15,8.51-10.15h3.5q10.31,0,10.31,10.36c0,9.55,0,9.58,9.75,9.25,1.17-.04,3.06.86,3.35-1.03.29-1.89.97-5.22-.38-5.61-5.2-1.48-2.84-5.36-2.92-8.08-.29-9.87-1.46-11.45-11.49-12.67,4.13-6.37,8.14-12.55,12.31-18.99ZM1776.37,274.23c3.13,2.42,6.31,4.51,10.09,5.39,11.87,2.75,23.23.89,22.07-15.98-.49-7.12-.08-14.3-.08-21.45q0-10.26-10.38-9.7c-1.17.07-3.04-.64-3.03,1.46,0,1.87-1.09,5.02.84,5.39,4.06.77,2.82,3.42,2.86,5.6.1,6.82,0,13.64.06,20.46.02,2.27-.32,4.37-2.1,5.88-3.67,3.09-7.92,2.72-11.72.8-3.78-1.91-8.61-3.28-8.53-9.11.1-6.82.02-13.64.02-20.46q0-10.72-10.57-10.01c-1.05.07-2.69-.52-2.81,1.16-.13,1.91-.99,5.22.53,5.53,4.85,1,3.03,4.42,3.1,6.94.19,7.31.08,14.63.06,21.95,0,1.87.67,3.96-2.59,4.24-1.53.13-1.85,6.63-.42,6.82,3.11.41,6.33.47,9.46.15,2.56-.26,1.45-3.29,3.16-5.05ZM1685.56,231.48c-9.43,0-15.65,3.96-16.84,10.72-1.48,8.35,1.75,12.81,11.92,16.56,3.87,1.43,7.83,2.73,11.52,4.54,4.52,2.23,4.75,6.75.76,9.44-5.72,3.86-15.97.61-18.06-5.97-.92-2.89-2.89-1.33-4.38-1.62-1.93-.37-1.92,1.05-2.06,2.49-.34,3.42.62,6.03,3.52,8.15,6.81,4.96,14.35,5.91,22.25,4.05,6.76-1.6,10.56-6.36,10.86-12.55.33-6.66-2.47-10.51-9.7-13.21-4.34-1.62-8.76-3.02-13.07-4.72-4.34-1.72-5.82-5.47-3.42-8.62,2.58-3.38,6.25-3.47,9.94-2.44,3.35.94,7.63,1.16,7.89,5.93.21,3.86,2.86,2.25,4.65,2.51,2.63.38,2.24-1.54,2.38-3.21.2-2.49-.5-4.44-2.32-6.21-4.43-4.34-9.74-6.12-15.84-5.83ZM1195.89,329.46c0,9.45,6.58,16.64,15.22,16.65,11.87,0,19.1-5.77,19.1-15.26,0-11.3-5.96-18.39-15.47-18.39-12.53,0-18.85,5.7-18.85,17ZM1150.89,145.27c10.33,0,17.35-6,17.36-14.81,0-11.41-5.81-18.57-15.1-18.57-12.23,0-19.22,5.66-19.22,15.57,0,11.66,5.86,17.82,16.96,17.82ZM1731.19,231.48c-6.7,0-11.68,1.8-16.35,4.9-3.5,2.32-1.64,4.21-.36,6.54,2.02,3.69,3.31.18,4.43-.57,8.33-5.55,18.4-4.65,23.18,2.27,4.74,6.86,4.01,18.93-1.49,24.53-5.5,5.61-14.12,5.58-22.32.03-1.06-.71-2.22-3.29-3.67-.24-.97,2.05-3.46,3.67-.29,6.25,7.82,6.36,21.95,7.36,30.44,1.8,8.51-5.57,12.19-18.31,8.67-29.98-3-9.95-11-15.54-22.24-15.54ZM1624.41,245.04c2.53-2.13,5.01-4.34,8.2-5.45,8.57-2.98,14.1.89,14.16,9.97.04,6.65.02,13.3,0,19.96,0,1.37.55,2.91-1.99,3.03-3.73.18-1.6,3.25-1.91,4.98-.45,2.52,1.72,1.82,3.03,1.84,3.66.07,7.33.07,10.99,0,1.15-.02,3.08.69,2.84-1.56-.19-1.78,1.3-4.73-1.18-5.13-3.35-.54-2.4-2.58-2.42-4.32-.07-7.48.12-14.97-.08-22.45-.21-7.92-4.17-12.93-11.43-14.14-6.35-1.06-12.6-.33-18.29,3.1-6.1,3.68-6.2,4.14-1.92,10.17ZM1504.41,302.34c6.96-.03,15.39-2.85,20.13-6.18,2.69-1.89,1.26-3.35.38-5.3-1.25-2.76-2.58-1.49-4.14-.46-4.55,3.02-9.57,4.47-15.04,4.18-4.66-.24-7.89-1.9-8.17-7.3-.25-4.98-4.28-1.98-6.54-2.59-2.27-.61-3.05.62-3.15,3.01-.38,9.2,5.7,14.7,16.53,14.65ZM1590.69,302.35c6.98-.11,13.27-2.3,19.24-5.87,2.8-1.68,2.19-3.13,1-5.52-1.53-3.07-2.89-1.37-4.45-.4-4.16,2.61-8.65,4.07-13.61,4.05-6.36-.03-8.02-1.33-9.28-7.65-.86-4.35-4.24-1.73-6.43-2.28-2.08-.52-3.2.26-3.34,2.84-.52,9.38,5.67,14.94,16.87,14.83ZM1419.4,223.26c2.32,0,4.65-.15,6.95.04,3.05.24,4.76-.08,4.74-4.03-.01-3.81-1.77-3.82-4.49-3.71-3.31.13-6.63-.09-9.93.07-3.16.15-4.58-1.07-4.49-4.31.04-1.31.89-3.03-.92-3.97-3.77-1.96-7.63.44-7.64,4.75-.02,9.51,1.67,11.18,11.31,11.18,1.49,0,2.98,0,4.47,0Z"/>
    <path class="cls-3" d="M282.63,561.79c-5.23-7.08-12.22-12.41-18.54-18.38-43.31-40.83-86.72-81.55-130.1-122.31-43.61-40.98-87.21-81.97-130.83-122.93-.72-.68-1.61-1.18-3.16-2.3,14.12-5.17,27.21-9.97,40.74-14.93-13.37-12.6-26.51-24.98-40.17-37.85,13.69-5.01,26.65-9.75,40.17-14.69-13.49-12.71-26.53-25-40.2-37.87,61.32-22.3,122.23-44.46,183.7-66.81-9.68-9.13-18.85-17.77-28.5-26.87,13.49-4.93,26.47-9.68,40.18-14.69-13.48-12.71-26.59-25.07-40.21-37.92,11.16-4.04,21.66-7.84,32.17-11.66,29.27-10.63,58.55-21.22,87.76-32,2.96-1.09,4.66-.69,6.9,1.43,23.56,22.27,47.24,44.42,70.88,66.61.6.56,1.12,1.2,2.19,2.35-13.33,4.88-26.27,9.61-39.99,14.63,13.56,12.79,26.67,25.16,40.15,37.87-13.48,4.93-26.58,9.72-40.16,14.69,6.81,6.44,13.33,12.57,19.81,18.74,1.97,1.88,3.79.34,5.53-.28,24.16-8.71,48.31-17.42,72.39-26.33,3.08-1.14,5-.8,7.36,1.43,44.4,41.88,88.87,83.69,133.33,125.5,2.66,2.5,5.33,4.98,8.66,8.09-13.47,4.93-26.47,9.69-40.22,14.72,13.51,12.73,26.64,25.1,40.2,37.87-13.66,4.99-26.78,9.77-40.22,14.68,13.34,12.56,26.49,24.95,40.24,37.9-61.46,22.34-122.28,44.46-183.67,66.77,8.73,8.29,17,16.4,25.61,24.15,2.98,2.69,1.81,3.31-.96,4.3-11.07,3.97-22.12,8.02-33.17,12.03-.91.33-2.02.29-2.59,1.68,12.95,12.2,25.97,24.47,39.58,37.29-8.75,3.19-16.92,6.18-25.1,9.15-31.22,11.34-62.45,22.67-93.65,34.09-1.05.39-2.75.1-3.11,1.82h-3ZM311.97,176.36c23.16,21.77,45.87,43.11,68.72,64.6-.76.35-1.18.58-1.62.74-39.42,14.35-78.85,28.65-118.22,43.13-2.95,1.08-4.34-.24-6.03-1.83-12.47-11.74-24.92-23.5-37.38-35.24-11.57-10.9-23.15-21.79-35.05-33,37.48-13.63,74.45-27.09,112.05-40.76-19.82-18.58-39.04-36.44-58.02-54.54-3.16-3.01-5.43-3.68-9.77-2.09-60.5,22.23-121.1,44.17-181.68,66.17-8.51,3.09-17.04,6.15-26.2,9.46,8.94,8.35,17.2,16.03,25.42,23.75,57.04,53.61,114.06,107.23,171.1,160.83,23.36,21.96,46.8,43.84,70.07,65.89,2.17,2.06,3.84,2.19,6.4,1.26,27.31-9.98,54.65-19.87,81.97-29.8,5-1.82,9.95-3.75,15.39-5.81-23.19-21.8-45.81-43.07-68.62-64.52,1.2-.55,2.07-1.03,2.99-1.36,17.37-6.33,34.75-12.64,52.12-18.96,54.75-19.91,109.48-39.86,164.26-59.68,3.58-1.29,4.71-1.91,1.27-4.97-8.07-7.18-15.86-14.67-23.74-22.06-33.92-31.86-67.84-63.7-101.67-95.65-2.02-1.91-3.54-2.16-6.03-1.23-12.82,4.78-25.72,9.37-38.57,14.06-19.49,7.11-38.97,14.24-59.16,21.63ZM18.79,298.1c10.73,10.02,20.71,19.29,30.63,28.61,45.79,43.04,91.58,86.09,137.36,129.16,32.58,30.65,65.14,61.3,97.66,92.01,2.38,2.25,4.43,3.12,7.82,1.86,23.85-8.84,47.78-17.44,71.68-26.15,8.23-3,16.43-6.09,25.21-9.35-10.54-9.92-20.56-19.14-30.3-28.64-2.29-2.23-4.1-2.35-6.87-1.32-21.29,7.88-42.65,15.58-63.94,23.45-2.92,1.08-4.97,1.05-7.47-1.3-50.29-47.45-100.68-94.8-151.05-142.17-26.28-24.71-52.57-49.42-78.86-74.13-1.38-1.3-2.32-2.91-4.97-1.87-8.56,3.36-17.26,6.36-26.87,9.84ZM19.2,245.86c1.73,1.41,2.68,2.09,3.52,2.88,46.42,43.55,92.84,87.1,139.25,130.67,41.07,38.55,82.16,77.09,123.11,115.76,2.49,2.35,4.31,2.54,7.28,1.44,20.76-7.67,41.58-15.16,62.38-22.73,11.08-4.03,22.15-8.1,33.69-12.32-10.1-9.45-19.82-18.26-29.15-27.47-2.84-2.8-5.11-3.21-8.69-1.88-20.83,7.74-41.76,15.21-62.59,22.93-3.01,1.11-5.07,1.07-7.46-1.4-4.74-4.89-9.87-9.39-14.84-14.05-48.85-45.87-97.69-91.73-146.53-137.6-22.9-21.51-45.79-43.05-68.68-64.57-1.18-1.11-2.06-2.38-4.22-1.55-8.65,3.31-17.39,6.39-27.06,9.91ZM337.34,68.56c-.97-1.08-1.37-1.6-1.85-2.05-19.37-18.16-38.8-36.26-58.04-54.55-2.23-2.12-3.96-1.55-6.1-.77-20.12,7.32-40.25,14.63-60.36,21.97-12.12,4.42-24.22,8.88-37.01,13.57,4.04,3.76,7.56,6.99,11.03,10.27,15.72,14.81,31.48,29.57,47.07,44.5,3.01,2.89,5.59,3.58,9.62,1.99,11.48-4.53,23.16-8.56,34.76-12.79,20.14-7.33,40.27-14.66,60.87-22.15ZM543.6,315.33c-10.54-9.91-20.54-19.13-30.28-28.63-2.22-2.17-3.94-2.09-6.51-1.15-28.28,10.37-56.59,20.64-84.89,30.94-27.54,10.02-55.07,20.06-82.55,30.07.03,1.34.92,1.92,1.62,2.58,8.94,8.44,18.01,16.75,26.8,25.34,2.78,2.71,5.19,3.02,8.77,1.7,37.65-13.83,75.37-27.49,113.06-41.2,17.68-6.43,35.37-12.88,53.97-19.65ZM378.84,384.7c9.85,9.3,18.99,17.92,28.53,26.92-13.72,5.02-26.69,9.77-39.62,14.51,2.38,4.81,5.57,4.23,9.42,2.83,46.55-17.01,93.14-33.91,139.72-50.85,8.96-3.26,17.88-6.61,27.38-10.12-9.95-9.39-19.5-18.11-28.67-27.21-3.14-3.11-5.72-3.87-9.97-2.27-23.31,8.73-46.74,17.13-70.13,25.64-18.66,6.78-37.32,13.55-56.65,20.57ZM291.89,227.08c-3.06-3.66-5.96-7.53-9.29-10.99-3.44-3.58-7.96-6.29-10.81-10.24-7.1-9.84-14.87-10.41-25.65-5.54-14.5,6.55-29.85,11.2-45.5,16.9,10.77,10.12,21.05,19.73,31.25,29.42,1.89,1.79,3.54.93,5.42.25,9.46-3.47,18.94-6.89,28.41-10.32,9.13-3.31,18.26-6.62,26.17-9.48ZM336.73,120.94c-10.75-10.13-21.02-19.75-31.19-29.45-1.45-1.38-2.67-1.36-4.41-.72-18.03,6.64-36.06,13.29-54.16,19.74-2.94,1.05-2.48,1.89-.71,3.54,5.96,5.55,11.87,11.15,17.83,16.7,4.24,3.94,8.08,10.09,12.96,11.09,4.84.99,10.77-3.19,16.2-5.15,14.28-5.15,28.54-10.33,43.48-15.73ZM362.63,238.73c-7.06-6.62-13.57-12.72-20.07-18.84-.92-.86-1.74-1.11-3.09-.61-8.71,3.26-17.48,6.38-26.78,9.74,6.61,6.22,12.72,11.81,18.63,17.61,1.94,1.91,3.58,2.26,6.14,1.27,8.02-3.1,16.15-5.92,25.18-9.18ZM174.79,99.42c7,6.57,13.62,12.78,20.22,19.01,1.06,1,2.16.65,3.24.26,8.61-3.11,17.21-6.26,26.44-9.63-6.94-6.51-13.38-12.46-19.7-18.55-1.34-1.29-2.49-1.22-3.98-.68-8.5,3.12-17.02,6.22-26.22,9.58ZM322.19,253.3c-6.81-6.37-12.98-12.15-19.15-17.93-1.2-1.12-2.06-2.15-4.22-1.31-8.59,3.35-17.32,6.36-26.37,9.63,6.62,6.22,12.9,12.13,19.18,18.04,1.09,1.02,1.99,2.11,3.85,1.41,8.65-3.26,17.35-6.4,26.7-9.84ZM284.2,202.15c6.94,6.55,13.34,12.55,19.69,18.61.97.92,1.96,1.2,3.15.77,8.72-3.16,17.43-6.34,26.8-9.75-7-6.61-13.39-12.61-19.72-18.67-1.55-1.48-3.07-.77-4.6-.22-8.22,2.98-16.42,6-25.31,9.25ZM325.43,162.34c-6.8-6.47-13.27-12.6-19.7-18.76-.96-.92-2.03-1.18-3.19-.76-5.99,2.17-11.95,4.4-18.42,6.8,6.92,6.52,13.32,12.51,19.67,18.55,1.07,1.02,1.92,1.38,3.46.79,5.85-2.26,11.78-4.31,18.18-6.62ZM240.98,255.07c6.99,6.63,13.44,12.75,19.88,18.89.95.91,1.9,1.04,3.15.58,5.92-2.21,11.87-4.34,18.34-6.69-6.83-6.44-13.13-12.27-19.28-18.25-1.81-1.77-3.45-1.33-5.4-.59-5.25,1.97-10.53,3.84-16.69,6.07ZM272.5,191.08c2.35,1.58,2.81,5.12,6.49,3.77,8.73-3.2,17.49-6.35,26.71-9.69-2.57-1.75-3.34-5.15-7.24-3.63-8.42,3.29-16.97,6.26-25.97,9.54Z"/>
    <path class="cls-2" d="M1920.01,233.29c.2-.27.4-.54.6-.8v38.92c-.24-.28-.48-.56-.72-.83.04-12.42.08-24.85.11-37.29Z"/>
    <path class="cls-2" d="M1919.91,205.97c.23-.47.47-.95.7-1.42v18.96c-.25-.39-.5-.78-.75-1.16.01-5.45.03-10.91.05-16.37Z"/>
    <path class="cls-2" d="M1920.62,306.33c-.25-.32-.51-.63-.76-.94,0-5.27.01-10.56.02-15.84.25-.39.5-.79.75-1.18v17.96Z"/>
    <path class="cls-6" d="M1340.82,464.42c-5.95,5.4-11.03,9.86-15.91,14.53-1.72,1.65-3.48,2.22-5.79,2.2-12.82-.07-25.65-.09-38.47.01-2.36.02-4.07-.69-5.69-2.37-6.25-6.45-12.57-12.84-18.96-19.15-1.55-1.53-2.17-3.1-2.16-5.26.06-21.78.08-43.57-.02-65.35-.01-2.56.83-4.38,2.61-6.12,6.42-6.29,12.79-12.63,19.07-19.05,1.66-1.7,3.44-2.3,5.76-2.29,13.16.07,26.31.09,39.47-.01,2.56-.02,4.44.79,6.1,2.66,4.4,4.95,8.9,9.83,13.36,14.73.64-.37,1.28-.73,1.93-1.1,0-4.03.22-8.07-.07-12.07-.25-3.42,1.13-4.32,4.29-4.23,5.82.18,11.66.21,17.48-.01,3.24-.12,4.27.85,4.21,4.19-.2,12.63-.08,25.27-.08,37.91,0,33.76-.04,67.51.06,101.27,0,3.23-.81,5.58-3.2,7.83-6.42,6.04-12.64,12.3-18.83,18.58-1.75,1.78-3.51,2.61-6.09,2.59-18.82-.11-37.64-.08-56.45-.03-2.26,0-4.09-.33-5.79-2.1-5.42-5.64-11.04-11.08-16.55-16.63-1.69-1.7-3.1-15.28-1.87-17.21.66-1.04,1.72-.85,2.68-.85,6.99-.02,13.99.1,20.98-.06,2.78-.06,3.24,1.15,3.31,3.57.19,6.73,4.11,10.3,10.94,10.31,10.16,0,20.32.02,30.48,0,5-.01,13.14-7.73,13.17-12.62.07-10.8.02-21.59.02-33.85ZM1340.82,422.5c0-6.91-.03-11.56.02-16.22.02-1.72-.35-3.05-1.63-4.44q-15.39-16.66-37.95-16.68c-2.33,0-4.66-.04-6.99,0-4.68.1-13.23,8.7-13.25,13.42-.04,15.29-.01,30.58-.02,45.87,0,1.66.05,3.15,1.34,4.57,5.11,5.63,10.24,10.96,18.99,8.87,1.42-.34,3.01-.24,4.48-.02,9.24,1.39,16.01-1.82,22.72-8.64,8.26-8.39,16.06-15.97,12.29-26.76Z"/>
    <path class="cls-6" d="M652.4,196.64c0-26.42.07-52.85-.08-79.27-.02-3.64.78-4.75,4.62-4.73,31.46.17,62.91.12,94.37.05,2.52,0,4.36.62,6.13,2.46,6.46,6.71,13.02,13.32,19.67,19.83,1.7,1.67,2.27,3.4,2.26,5.71-.08,16.95-.09,33.9,0,50.85.01,2.38-.77,4.02-2.42,5.65-6.51,6.42-12.99,12.88-19.3,19.5-2.01,2.11-4.08,2.89-6.97,2.88-21.3-.11-42.61.08-63.91-.17-4.79-.06-6.52.77-6.39,6.1.41,16.77.05,33.57.24,50.35.04,3.65-.81,4.97-4.66,4.77-6.31-.33-12.66-.32-18.96,0-3.79.19-4.7-1-4.68-4.71.16-26.42.09-52.85.09-79.27ZM712.22,136.54c-8.99,0-17.99.18-26.98-.08-3.69-.11-4.84.85-4.79,4.68.22,16.63.2,33.26,0,49.89-.04,3.68.88,4.82,4.69,4.77,17.82-.21,35.64-.08,53.46-.1,5.43,0,13.29-7.66,13.32-13.06.07-10.98.06-21.95,0-32.93-.03-5.44-7.82-13.13-13.24-13.15-8.83-.03-17.66,0-26.48,0Z"/>
    <path class="cls-2" d="M969.21,179.34c5.89-5.64,10.96-10.34,15.83-15.24,2.13-2.15,4.32-3.2,7.44-3.15,11.49.17,22.98.15,34.46,0,3.06-.04,5.33.77,7.48,3.02,5.87,6.13,11.88,12.12,18,17.99,2.08,2,2.96,4.04,2.95,6.95-.11,21.45-.1,42.89-.01,64.34,0,2.51-.65,4.37-2.47,6.14-6.33,6.14-12.57,12.37-18.72,18.69-1.77,1.82-3.61,2.52-6.13,2.51-19.48-.09-38.96-.09-58.44,0-2.58.01-4.35-.86-6.09-2.64-6.4-6.54-12.86-13.02-19.42-19.4-1.82-1.77-2.52-3.63-2.52-6.15.06-46.22.09-92.43-.04-138.65-.01-3.82,1.2-4.88,4.86-4.72,6.15.27,12.33.27,18.47,0,3.54-.16,4.46,1.03,4.43,4.48-.15,21.44-.08,42.89-.08,65.81ZM1028.16,220.86c0-6.32-.32-12.65.1-18.94.34-5.06-1.28-8.59-4.88-12.2-3.83-3.84-7.62-5.76-13.08-5.22-4.78.47-9.65.19-14.47.06-2.18-.06-3.73.64-5.24,2.18-6.29,6.41-12.64,12.76-19.07,19.03-1.68,1.63-2.38,3.31-2.36,5.67.11,10.63.03,21.27.06,31.91.01,5.63,8.51,13.93,14.26,13.94,9.49.02,18.98-.23,28.46.11,4.4.16,7.27-1.53,10.44-4.32,4.5-3.96,6.46-8.24,5.91-14.27-.54-5.93-.12-11.95-.12-17.94Z"/>
    <path class="cls-5" d="M1082.14,295.23c0-60.19.04-120.39-.09-180.58,0-4.17.68-5.94,5.35-5.59,6.13.46,12.32.2,18.48.07,2.57-.06,3.75.78,3.43,3.42-.1.82-.01,1.66-.01,2.49,0,120.06-.03,240.11.11,360.17,0,4.7-.94,6.45-5.91,6.02-5.62-.48-11.33-.32-16.97-.03-3.48.18-4.47-.86-4.45-4.39.16-23.44.08-46.89.08-70.34v-111.24Z"/>
    <path class="cls-6" d="M1466.79,430.68c-12.98,0-25.97.08-38.95-.06-3-.03-4.26.79-3.96,3.91.22,2.3.45,4.74-.03,6.96-1.63,7.53,3.28,11.55,7.97,15.81,1.27,1.15,2.71,1.09,4.2,1.09,11.48,0,22.97.03,34.45-.01,4.79-.02,11.84-6.62,11.68-11.44-.13-4.01,1.52-4.71,5.01-4.58,6.32.23,12.65.12,18.97.04,2.4-.03,3.45.6,3.67,3.33.63,7.61-.34,14.13-7.11,19.28-5.12,3.89-9.35,8.97-13.83,13.65-1.75,1.83-3.61,2.51-6.13,2.5-19.81-.09-39.61-.09-59.42,0-2.57.01-4.35-.85-6.09-2.63-5.92-6.07-11.92-12.08-18-17.99-2.06-2-2.96-4.15-2.95-7.04.09-21.27.06-42.55.02-63.82,0-2.24.34-4.12,2.07-5.84,6.5-6.43,12.91-12.96,19.22-19.57,1.88-1.97,3.9-2.73,6.6-2.72,19.14.08,38.28.07,57.42.01,2.46,0,4.43.51,6.25,2.36,6.41,6.52,12.94,12.93,19.52,19.29,1.67,1.62,2.41,3.31,2.39,5.67-.11,12.46-.17,24.93.03,37.39.06,3.57-1.15,4.51-4.56,4.47-12.81-.16-25.63-.07-38.45-.06ZM1453.13,410.25c8.48,0,16.96.02,25.44-.01,1.72,0,3.92.58,3.91-2.37-.01-4.15.26-8.33-.11-12.45-.33-3.71-9.51-11.1-13.26-11.11-10.81-.02-21.62-.01-32.43,0-1.46,0-2.99-.29-4.23.93-4.67,4.6-10.33,8.64-8.57,16.58.25,1.11.17,2.34,0,3.48-.53,3.75.67,5.22,4.79,5.04,8.13-.35,16.29-.1,24.44-.1Z"/>
    <path class="cls-2" d="M1014.02,430.69c-12.82,0-25.64.1-38.46-.07-3.28-.04-4.58.94-4.24,4.24.21,1.97.39,4.06-.02,5.97-1.64,7.63,3.16,11.94,7.99,16.35,1.42,1.3,3.02,1.19,4.67,1.2,11.32,0,22.64.04,33.96,0,4.97-.02,12.06-6.77,12.01-11.75-.04-3.21.83-4.4,4.18-4.27,6.48.24,12.99.2,19.47.01,2.91-.08,3.97.98,3.58,3.75-.05.33-.06.67,0,1,1.5,7.97-1.49,13.88-7.7,18.96-5.51,4.51-9.53,11.76-15.67,14.29-6.14,2.53-14.08.74-21.23.76-13.48.04-26.97-.07-40.45.07-3.22.03-5.63-.74-7.89-3.16-5.79-6.19-11.78-12.2-17.83-18.14-1.71-1.68-2.23-3.42-2.22-5.73.07-21.78.08-43.55-.01-65.33,0-2.37.73-4.03,2.38-5.66,6.38-6.32,12.68-12.73,18.92-19.18,1.62-1.67,3.36-2.44,5.71-2.43,19.64.06,39.29.06,58.93,0,1.98,0,3.47.59,4.86,1.99,6.81,6.83,13.65,13.64,20.57,20.36,1.49,1.44,1.79,3,1.78,4.9-.04,12.63-.16,25.27.07,37.9.07,3.61-1.45,4.05-4.42,4.03-12.98-.1-25.97-.04-38.96-.04ZM1000.64,410.25c5.65,0,11.3,0,16.95,0q12.73,0,12.42-12.79c0-.33.02-.67,0-1-.33-4.32-8.44-12.11-12.76-12.12-10.97-.04-21.94-.02-32.91,0-1.31,0-2.75-.31-3.79.76-4.62,4.73-11.04,8.45-9.23,16.76.31,1.43.19,2.99.01,4.47-.35,3.01.78,4.06,3.88,3.99,8.47-.18,16.95-.06,25.43-.06Z"/>
    <path class="cls-2" d="M1877.04,430.46c-12.82,0-25.64.1-38.46-.07-3.35-.04-5.02.7-4.56,4.37.24,1.96.41,4.07-.02,5.97-1.73,7.65,3.12,11.95,7.93,16.37,1.24,1.14,2.61,1.29,4.13,1.29,11.66,0,23.31.04,34.97-.03,4.39-.02,11.7-7.23,11.5-11.71-.17-3.71,1.3-4.42,4.61-4.3,6.15.23,12.32.19,18.48.01,2.89-.08,4.53.58,4.01,3.81-.03.16-.03.34,0,.5,1.24,8-1.12,14.28-7.73,19.46-5.59,4.38-9.57,11.67-15.7,14.25-5.96,2.51-13.75.7-20.74.72-13.82.03-27.64-.04-41.46.05-2.67.02-4.61-.65-6.53-2.67-5.96-6.27-12.12-12.34-18.34-18.36-1.83-1.77-2.51-3.59-2.5-6.12.09-21.45.09-42.89,0-64.34-.01-2.66.63-4.66,2.6-6.57,6.33-6.14,12.52-12.42,18.63-18.77,1.87-1.94,3.81-2.81,6.55-2.8,19.15.1,38.3.08,57.44.02,2.48,0,4.39.57,6.2,2.41,6.29,6.42,12.7,12.71,19.17,18.94,1.81,1.74,2.62,3.54,2.59,6.1-.12,12.3-.22,24.61.04,36.91.08,3.91-1.27,4.69-4.86,4.63-12.65-.2-25.31-.08-37.96-.08ZM1863.15,410.25c5.65,0,11.3,0,16.95,0q12.84,0,12.53-13.11c-.12-4.85-8.12-12.79-13-12.8-9.64-.03-19.28-.01-28.92-.01-10.09,0-16.64,6.62-16.64,16.8,0,1.83.14,3.66-.03,5.47-.26,2.82.84,3.76,3.68,3.71,8.47-.15,16.95-.06,25.43-.05Z"/>
    <path class="cls-4" d="M1137.5,320.77c0-51.37.07-102.73-.11-154.1-.02-4.68,1.33-6.01,5.85-5.73,5.97.37,11.98.19,17.97.05,2.72-.07,4.15.67,3.73,3.62-.09.65-.01,1.33-.01,1.99,0,102.9-.04,205.8.12,308.7,0,4.9-1.28,6.32-6.06,5.92-5.29-.43-10.68-.46-15.96,0-4.87.43-5.63-1.53-5.62-5.86.14-51.53.09-103.07.09-154.6Z"/>
    <path class="cls-2" d="M1563.87,382.15c5.84-5.9,11.73-11.75,17.49-17.74,1.84-1.92,3.72-2.93,6.51-2.89,10.16.16,20.32.14,30.48.01,2.73-.03,4.7.86,6.58,2.79,6.63,6.78,13.32,13.51,20.14,20.1,1.98,1.91,2.64,3.91,2.64,6.59-.08,28.44-.14,56.87.05,85.31.03,4.11-1.33,5.05-5.1,4.87-5.82-.28-11.67-.32-17.48.01-4.06.23-5.36-.9-5.33-5.15.2-25.61.1-51.22.1-76.83,0-6.96-7.24-13.33-14.13-14.21-12.01-1.53-21.32,2.03-28.24,11.95-.94,1.35-2.05,2.73-3.38,3.64-8.82,6.05-10.39,14.47-9.93,24.63.77,17.09.13,34.25.28,51.37.03,3.35-.73,4.74-4.38,4.58-6.48-.28-12.99-.19-19.48-.03-2.81.07-3.73-.82-3.72-3.68.08-37.42.08-74.83,0-112.25,0-2.85.9-3.78,3.71-3.71,6.16.16,12.33.17,18.48,0,2.93-.08,3.7,1.06,3.62,3.8-.17,5.43-.05,10.87-.05,16.31.39.17.78.34,1.17.5Z"/>
    <path class="cls-2" d="M884.02,259.46c-5.6,5.81-11.31,11.52-16.77,17.46-2.43,2.64-4.96,3.82-8.66,3.72-9.98-.27-19.98-.18-29.97-.04-2.72.04-4.66-.8-6.54-2.73-6.14-6.33-12.38-12.56-18.72-18.69-1.95-1.89-2.74-3.86-2.73-6.57.08-28.93.11-57.86-.02-86.79-.02-3.59.79-5.09,4.69-4.89,6.15.31,12.33.27,18.47,0,3.55-.15,4.47,1.06,4.45,4.51-.13,25.77-.07,51.54-.07,77.31,0,7.6,7.1,13.8,14.69,14.69,10.94,1.28,19.07-2.15,25.8-10.78,4.26-5.46,11.5-9.29,13.98-15.27,2.48-5.99.74-13.73.76-20.7.04-14.96.18-29.93-.1-44.89-.08-4.17,1.37-5.04,5.13-4.87,5.81.27,11.66.3,17.48,0,3.96-.21,5.09,1.07,5.06,5.03-.18,23.11-.09,46.22-.09,69.33,0,13.63-.11,27.27.08,40.9.05,3.55-1.11,4.58-4.55,4.42-5.65-.25-11.33-.24-16.98,0-3.2.13-4.41-.75-4.24-4.12.27-5.4.07-10.83.07-16.25-.41-.26-.82-.52-1.23-.78Z"/>
    <path class="cls-6" d="M740.5,383.65c6.83-6.9,12.74-12.67,18.4-18.68,2.25-2.4,4.64-3.26,7.88-3.2,9.99.17,19.98.13,29.96.02,2.53-.03,4.38.71,6.15,2.52,6.62,6.78,13.34,13.48,20.13,20.09,1.69,1.64,2.33,3.34,2.33,5.68-.07,28.92-.11,57.85.04,86.77.02,3.61-1.14,4.49-4.53,4.34-5.82-.26-11.68-.43-17.47.04-4.74.39-5.34-1.56-5.31-5.65.17-25.43.09-50.86.09-76.3,0-6.85-7.37-13.38-14.1-14.28-12.01-1.6-20.07,3.25-28.6,11.52-9.82,9.53-14.55,19.02-13.41,32.88,1.28,15.69.19,31.56.38,47.35.04,3.49-.91,4.59-4.43,4.44-6.31-.28-12.65-.17-18.97-.04-2.6.05-3.88-.43-3.87-3.49.09-37.4.09-74.8.01-112.2,0-2.84.92-3.76,3.73-3.69,5.99.16,11.99.17,17.98,0,2.86-.08,3.76.96,3.68,3.74-.17,5.48-.05,10.96-.05,18.13Z"/>
    <path class="cls-2" d="M1674.76,421.53c0-10.48.08-20.95-.05-31.43-.04-2.98.56-5.27,2.87-7.47,6.25-5.97,12.25-12.21,18.22-18.47,1.9-1.99,3.98-2.62,6.65-2.61,18.49.08,36.97.08,55.46,0,2.53-.01,4.38.71,6.14,2.54,6.35,6.58,12.82,13.07,19.32,19.5,1.53,1.51,2.29,3.06,2.23,5.25-.14,4.49-.16,8.98,0,13.47.09,2.57-.78,3.54-3.41,3.49-6.99-.13-13.99-.13-20.98,0-2.64.05-3.93-1-3.31-3.49,1.98-7.96-4.03-11.56-8.49-16.06-1.08-1.09-2.34-1.08-3.68-1.08-10.33,0-20.65-.05-30.98.03-4.66.03-12.34,7.72-12.36,12.38-.06,15.96-.05,31.93,0,47.89.01,4.7,7.99,12.35,12.82,12.38,9.83.04,19.65.04,29.48,0,5.59-.02,13.09-7.55,13.16-13.11q.09-7.54,7.75-7.54c5.5,0,10.99.09,16.49-.04,2.53-.06,3.62.68,3.52,3.38-.17,4.65-.19,9.32.01,13.96.11,2.53-1.32,4.03-2.82,5.55-6.32,6.39-12.74,12.68-19.01,19.12-1.56,1.61-3.25,1.99-5.35,1.99-18.99-.05-37.97-.06-56.96.01-2.31,0-4.1-.5-5.76-2.23-5.87-6.13-11.75-12.24-17.88-18.11-2.39-2.29-3.2-4.65-3.15-7.86.17-10.47.06-20.95.06-31.43Z"/>
    <path class="cls-6" d="M1195.91,220.82c0-10.8.08-21.61-.05-32.41-.03-2.7.71-4.67,2.67-6.58,6.08-5.91,12.04-11.95,17.92-18.07,1.86-1.94,3.79-2.82,6.53-2.81,18.48.11,36.95.12,55.43,0,3.12-.02,5.32,1,7.41,3.21,6.07,6.39,12.28,12.64,18.49,18.9,1.33,1.34,2.37,2.67,2.33,4.72-.09,4.65-.13,9.31.01,13.96.08,2.63-1,3.49-3.54,3.45-6.82-.11-13.65-.15-20.47.02-2.82.07-4.23-.9-3.58-3.68,1.84-7.93-4.15-11.5-8.63-15.96-1.26-1.25-2.75-.98-4.21-.98-10.15-.02-20.31-.05-30.46,0-4.65.02-12.67,7.96-12.68,12.54-.04,15.79-.04,31.58,0,47.37.01,4.57,8.06,12.72,12.61,12.75,10.15.07,20.31.06,30.46,0,5.01-.03,12.81-7.94,12.88-12.92.02-1.33.12-2.67-.02-3.99-.28-2.67.5-3.9,3.52-3.8,6.82.2,13.65.19,20.47,0,2.95-.08,3.89,1.14,3.64,3.82-.05.49-.07,1.01,0,1.49,1.62,10.17-2.75,17.14-9.58,24.82-9.6,10.79-19.67,15.47-34.05,14.1-13.03-1.24-26.28-.33-39.43-.21-2.87.03-4.99-.71-7.01-2.82-5.87-6.12-11.89-12.1-18-17.98-1.97-1.89-2.71-3.86-2.68-6.56.13-10.8.05-21.61.05-32.41Z"/>
    <path class="cls-2" d="M863.41,421.58c0-10.8-.11-21.61.07-32.41.05-3.22-.85-4.4-4.17-4.21-4.65.26-9.32-.02-13.98.1-2.33.06-3.28-.71-3.23-3.13.12-5.65.14-11.3-.01-16.95-.07-2.63.91-3.51,3.47-3.43,4.49.14,9.01-.25,13.47.12,4.33.36,5.29-1.34,5.17-5.37-.28-9.47.06-18.95-.17-28.42-.08-3.54.62-5.08,4.59-4.84,5.97.35,11.99.35,17.97,0,3.96-.23,4.69,1.31,4.6,4.86-.23,9.3.14,18.62-.17,27.92-.14,4.37.82,6.11,5.64,5.89,8.8-.42,17.64-.02,26.46-.17,3.07-.05,4.56.58,4.34,4.11-.31,4.97-.27,9.98-.01,14.95.18,3.44-.87,4.6-4.43,4.51-9.32-.23-18.64.02-27.96-.14-2.96-.05-4.04.68-4.02,3.86.14,19.11.04,38.23.09,57.34.01,4.55,7.5,11.79,12.12,11.83,6.82.05,13.65.13,20.47-.04,2.77-.07,3.83.71,3.72,3.61-.21,5.31-.13,10.64-.03,15.95.04,2.32-.31,3.69-3.18,3.66-11.65-.13-23.3-.08-34.95-.02-1.86,0-3.08-.79-4.31-2.03-6.44-6.5-12.88-12.99-19.45-19.35-1.74-1.68-2.17-3.49-2.15-5.77.08-10.8.04-21.61.03-32.41Z"/>
    <path class="cls-2" d="M681.54,397.36c0,26.26-.07,52.53.08,78.79.02,3.77-.76,5.32-4.88,5.05-5.8-.37-11.66-.36-17.47,0-4.43.27-5.88-.9-5.85-5.65.22-37.07.12-74.14.12-111.21,0-15.63.08-31.25-.07-46.88-.03-3.19.77-4.38,4.15-4.24,6.15.26,12.33.34,18.47-.02,4.25-.25,5.62.77,5.58,5.35-.26,26.26-.12,52.53-.12,78.79Z"/>
    <path class="cls-4" d="M1226.9,421.37c0,18.45-.08,36.9.08,55.35.03,3.45-.88,4.63-4.43,4.49-6.65-.27-13.31-.17-19.97-.03-2.6.05-3.43-.83-3.42-3.43.07-37.56.08-75.12-.02-112.69,0-3.1,1.35-3.52,3.91-3.48,6.49.11,12.99.22,19.47-.04,3.53-.14,4.48,1.02,4.45,4.49-.16,18.45-.08,36.9-.08,55.35Z"/>
    <path class="cls-3" d="M1526.87,250c0,5.31.02,10.61-.02,15.92,0,.98-.17,1.98-.46,2.92-2.68,8.74-12.05,13.27-23.72,11.5-8.87-1.34-14.55-7.75-14.7-16.67-.07-4.32.06-8.64-.03-12.96-.14-6.06-3.57-10.08-9.66-11.52-6.17-1.46-12.49.93-15.14,5.81-1.15,2.11-1.96,4.2.62,6.06,1.79,1.29,1.98,3.28,1.93,5.37-.1,3.82.04,7.64-.05,11.46-.08,3.3.87,5.61,4.67,5.49,1.64-.05,2.53.45,2.35,2.25-.15,1.58.33,3.13-1.74,4.18-6.4,3.24-14.34-.9-14.89-8.11-.26-3.47-.07-6.97-.06-10.46,0-3.44.6-7.01-2.93-9.41-1.03-.7-.88-1.98-.71-3.21.94-6.5,3.95-11.7,9.99-14.51,8.62-4.01,17.41-4.02,25.82.59,6.55,3.59,9.32,9.64,9.47,16.94.08,3.98-.07,7.98.04,11.96.16,5.73,3.62,9.36,9.15,9.8,5.37.43,10.06-2.69,10.54-8.23.67-7.75.38-15.58.5-23.38.01-.88-.14-1.89-1.13-1.89-4.94-.02-2.77-3.78-2.71-5.76.11-3.4,3.15-1.49,4.69-1.53,8.46-.25,8.46-.13,8.46,8.44v8.97c-.1,0-.2,0-.31,0Z"/>
    <path class="cls-3" d="M1612.81,250.48c0,4.65.01,9.31,0,13.96,0,1.65-.07,3.26-.64,4.9-2.99,8.46-12.02,12.71-23.62,10.99-8.8-1.3-14.53-7.81-14.64-16.72-.05-4.32.09-8.65-.03-12.97-.18-6.31-4.09-10.51-10.72-11.73-6.2-1.14-12.12,1.77-14.49,7.06-.55,1.22-1.56,2.6-.25,3.61,4.35,3.36,3.04,8.05,3.18,12.4.07,2.16.07,4.32,0,6.48-.09,2.96,1.04,4.85,4.22,4.9,1.64.03,2.94.05,2.83,2.32-.09,1.9-.05,3.47-2.28,4.36-7.11,2.83-14.21-1.69-14.43-9.39-.1-3.49-.1-6.98,0-10.47.1-3.04.16-5.95-2.66-8.04-1.16-.86-1.24-2.15-1.04-3.6.94-6.76,4.26-11.98,10.49-14.73,7.95-3.5,16.16-3.61,24.11.2,7.36,3.53,10.47,9.84,10.72,17.71.13,4.15-.1,8.32.06,12.47.21,5.28,3.91,8.84,9.26,9.18,5.25.34,9.94-2.81,10.29-7.94.53-7.77.25-15.6.33-23.41.01-1.41-.69-1.89-2.01-2.3-3.27-1.04-1.47-3.86-1.55-5.82-.1-2.46,2.2-1.35,3.42-1.39,9.45-.31,9.46-.27,9.46,8.98v8.98Z"/>
    <path class="cls-3" d="M1441.67,238.81c0,8.14.06,16.28-.02,24.42-.08,8.22-4.21,13.72-12.13,16.2-6.05,1.89-12.15,1.75-18.09-.3-7.15-2.48-11.25-8.24-11.4-15.86-.13-6.64.01-13.29-.07-19.94-.02-1.29.83-3.2-1.55-3.52-3.94-.53-1.97-3.57-2.13-5.47-.24-2.84,2.24-1.77,3.63-1.82,9.78-.31,9.78-.28,9.78,9.26,0,6.81-.1,13.63.04,20.44.14,6.88,4.6,11.17,11.29,11.17,6.64,0,10.93-4.4,10.95-11.42.04-15.78.1-31.57-.05-47.35-.03-3.58.03-5.53,4.76-5.63,5.1-.11,5.14,2.17,5.05,5.89-.18,7.97-.06,15.95-.06,23.92Z"/>
    <path class="cls-3" d="M1865.34,232.98c-4.17,6.44-8.18,12.62-12.31,18.99,10.03,1.22,11.2,2.8,11.49,12.67.08,2.72-2.28,6.6,2.92,8.08,1.35.38.67,3.72.38,5.61-.29,1.9-2.18.99-3.35,1.03-9.75.32-9.75.29-9.75-9.25q0-10.36-10.31-10.36h-3.5c-9.04,0-9.95,1.13-8.51,10.15.21,1.31.53,1.9,1.98,2.28,3.21.84,1.27,3.59,1.51,5.44.33,2.51-1.87,1.71-3.17,1.75-2.99.09-6.02.26-8.98-.06-1.62-.18-4.58,1.69-4.69-1.69-.06-1.95-1.95-5.3,2.5-5.64,1.59-.12,1.16-1.76,1.16-2.84.03-8.81.03-17.62,0-26.44,0-1.26.33-2.64-1.71-2.94-3.82-.57-1.89-3.65-1.98-5.55-.12-2.75,2.37-1.63,3.75-1.67,9.64-.28,9.64-.24,9.64,9.41,0,1.16-.23,2.39.05,3.48.6,2.32-1.93,6.1,1.51,6.77,3.66.71,8.25,1.81,10.61-3.5,1.39-3.14,4.15-5.68,5.56-8.82,2.97-6.61,7.72-8.92,15.18-6.89Z"/>
    <path class="cls-3" d="M1776.37,274.23c-1.7,1.75-.59,4.78-3.16,5.05-3.12.32-6.35.26-9.46-.15-1.44-.19-1.11-6.69.42-6.82,3.27-.28,2.59-2.37,2.59-4.24.03-7.32.13-14.64-.06-21.95-.07-2.53,1.75-5.94-3.1-6.94-1.52-.31-.66-3.63-.53-5.53.12-1.67,1.76-1.08,2.81-1.16q10.57-.72,10.57,10.01c0,6.82.08,13.64-.02,20.46-.09,5.83,4.74,7.2,8.53,9.11,3.8,1.92,8.05,2.29,11.72-.8,1.78-1.5,2.12-3.61,2.1-5.88-.07-6.82.04-13.64-.06-20.46-.03-2.18,1.2-4.83-2.86-5.6-1.92-.37-.83-3.52-.84-5.39,0-2.1,1.86-1.39,3.03-1.46q10.38-.58,10.38,9.7c0,7.15-.41,14.33.08,21.45,1.17,16.87-10.19,18.73-22.07,15.98-3.78-.88-6.96-2.97-10.09-5.39Z"/>
    <path class="cls-3" d="M1920.01,233.29c-.04,12.43-.08,24.86-.11,37.29-2.01,8.48-9.46,12.1-20.17,9.55-2.54-.6-4.99-1.77-7.34-2.95-2.41-1.22-4.22-4.93-6.28,1.08-1.02,2.96-6.66,1.28-10.04.84-2.37-.32-.76-3.36-1.14-5.14-.09-.42.18-1.32.37-1.34,5.79-.8,3.11-5.28,3.29-8.14.37-5.96.3-11.97.03-17.94-.12-2.62,2-6.33-3.15-7.4-1.38-.29-.65-3.66-.44-5.57.17-1.59,1.81-1.02,2.87-1.08q10.05-.63,10.05,9.45c0,6.81.12,13.63-.04,20.44-.13,5.77,4.43,7.38,8.26,9.39,3.97,2.09,8.26,2.67,12.17-.41,1.66-1.31,2.27-3.22,2.28-5.31.02-7.81.05-15.62.05-23.43,0-1.09.36-2.65-1.28-2.75-4.85-.32-2.6-4.01-2.49-5.97.14-2.64,2.9-1.37,4.41-1.33,2.9.07,5.94-.98,8.71.72Z"/>
    <path class="cls-3" d="M1685.56,231.48c6.1-.28,11.41,1.49,15.84,5.83,1.81,1.78,2.52,3.73,2.32,6.21-.14,1.67.25,3.58-2.38,3.21-1.79-.26-4.44,1.35-4.65-2.51-.26-4.77-4.54-4.99-7.89-5.93-3.69-1.03-7.36-.94-9.94,2.44-2.4,3.15-.92,6.9,3.42,8.62,4.3,1.71,8.73,3.11,13.07,4.72,7.24,2.69,10.03,6.54,9.7,13.21-.31,6.19-4.1,10.95-10.86,12.55-7.9,1.87-15.44.92-22.25-4.05-2.9-2.11-3.86-4.73-3.52-8.15.14-1.44.13-2.86,2.06-2.49,1.49.29,3.46-1.27,4.38,1.62,2.09,6.58,12.34,9.83,18.06,5.97,3.99-2.69,3.76-7.21-.76-9.44-3.69-1.82-7.65-3.11-11.52-4.54-10.17-3.75-13.4-8.21-11.92-16.56,1.2-6.76,7.41-10.72,16.84-10.72Z"/>
    <path class="cls-4" d="M1195.89,329.46c0-11.3,6.33-17,18.85-17,9.51,0,15.47,7.09,15.47,18.39,0,9.49-7.23,15.26-19.1,15.26-8.64,0-15.22-7.2-15.22-16.65Z"/>
    <path class="cls-4" d="M1150.89,145.27c-11.1,0-16.96-6.15-16.96-17.82,0-9.91,6.99-15.57,19.22-15.57,9.29,0,15.1,7.16,15.1,18.57,0,8.82-7.03,14.81-17.36,14.81Z"/>
    <path class="cls-3" d="M1731.19,231.48c11.23,0,19.24,5.6,22.24,15.54,3.52,11.67-.17,24.4-8.67,29.98-8.49,5.56-22.61,4.56-30.44-1.8-3.17-2.58-.68-4.2.29-6.25,1.44-3.06,2.61-.48,3.67.24,8.21,5.55,16.82,5.57,22.32-.03,5.49-5.6,6.22-17.67,1.49-24.53-4.78-6.92-14.85-7.82-23.18-2.27-1.11.74-2.4,4.25-4.43.57-1.28-2.34-3.14-4.22.36-6.54,4.67-3.1,9.65-4.9,16.35-4.9Z"/>
    <path class="cls-3" d="M1624.41,245.04c-4.28-6.02-4.18-6.49,1.92-10.17,5.69-3.43,11.94-4.16,18.29-3.1,7.25,1.21,11.22,6.22,11.43,14.14.2,7.48,0,14.97.08,22.45.02,1.74-.93,3.78,2.42,4.32,2.48.4.99,3.35,1.18,5.13.24,2.25-1.69,1.53-2.84,1.56-3.66.08-7.33.08-10.99,0-1.31-.03-3.48.68-3.03-1.84.31-1.73-1.82-4.8,1.91-4.98,2.54-.12,1.98-1.66,1.99-3.03.03-6.65.05-13.3,0-19.96-.06-9.08-5.59-12.96-14.16-9.97-3.19,1.11-5.67,3.32-8.2,5.45Z"/>
    <path class="cls-3" d="M1919.87,289.55c0,5.28-.01,10.57-.02,15.84-3.63,7.47-16.83,9.07-21.95,2.69-1.89-2.35-1.25-5.06-1.23-7.64.02-2.88-.73-5.07-3.99-5.03-3.65.04-2.07-2.57-2.33-4.19-.37-2.31,1.02-2.58,2.98-2.66,7.67-.33,10.49,2.27,10.6,10.06.01.99-.1,2.01.06,2.97.43,2.53,2.25,3.69,4.58,3.55,2.09-.13,3.85-1.26,3.98-3.67.13-2.48.05-4.96.05-7.45,0-6.17.86-6.7,7.26-4.47Z"/>
    <path class="cls-3" d="M1504.41,302.34c-10.83.05-16.92-5.44-16.53-14.65.1-2.39.88-3.62,3.15-3.01,2.26.61,6.29-2.39,6.54,2.59.27,5.41,3.51,7.06,8.17,7.3,5.48.29,10.49-1.16,15.04-4.18,1.55-1.03,2.89-2.3,4.14.46.88,1.95,2.31,3.41-.38,5.3-4.74,3.33-13.16,6.15-20.13,6.18Z"/>
    <path class="cls-3" d="M1590.69,302.35c-11.2.11-17.39-5.44-16.87-14.83.14-2.58,1.25-3.37,3.34-2.84,2.19.55,5.57-2.07,6.43,2.28,1.26,6.32,2.92,7.62,9.28,7.65,4.97.02,9.45-1.45,13.61-4.05,1.56-.98,2.92-2.68,4.45.4,1.19,2.39,1.8,3.84-1,5.52-5.96,3.58-12.26,5.76-19.24,5.87Z"/>
    <path class="cls-3" d="M1419.4,223.26c-1.49,0-2.98,0-4.47,0-9.64,0-11.32-1.67-11.31-11.18,0-4.3,3.87-6.71,7.64-4.75,1.81.94.95,2.66.92,3.97-.09,3.24,1.32,4.46,4.49,4.31,3.3-.16,6.63.07,9.93-.07,2.72-.11,4.48-.1,4.49,3.71.01,3.95-1.7,4.27-4.74,4.03-2.3-.18-4.63-.04-6.95-.04Z"/>
    <path class="cls-3" d="M1919.91,205.97c-.02,5.46-.03,10.92-.05,16.37-7.08,2.45-8.25,1.69-8.25-5.38,0-1.81,0-3.61,0-5.42,0-7.23.53-7.58,8.3-5.57Z"/>
    <path class="cls-1" d="M311.97,176.36c20.19-7.38,39.67-14.52,59.16-21.63,12.86-4.69,25.75-9.27,38.57-14.06,2.49-.93,4-.67,6.03,1.23,33.83,31.95,67.75,63.8,101.67,95.65,7.87,7.4,15.67,14.88,23.74,22.06,3.44,3.06,2.31,3.68-1.27,4.97-54.78,19.82-109.52,39.76-164.26,59.68-17.37,6.32-34.75,12.63-52.12,18.96-.92.34-1.79.81-2.99,1.36,22.81,21.44,45.43,42.71,68.62,64.52-5.44,2.06-10.39,3.99-15.39,5.81-27.32,9.94-54.67,19.82-81.97,29.8-2.56.94-4.23.8-6.4-1.26-23.27-22.05-46.71-43.94-70.07-65.89-57.04-53.6-114.06-107.23-171.1-160.83-8.22-7.72-16.48-15.4-25.42-23.75,9.16-3.31,17.68-6.37,26.2-9.46,60.58-22,121.18-43.94,181.68-66.17,4.34-1.59,6.61-.93,9.77,2.09,18.98,18.11,38.19,35.96,58.02,54.54-37.6,13.68-74.58,27.13-112.05,40.76,11.9,11.2,23.48,22.09,35.05,33,12.46,11.74,24.92,23.5,37.38,35.24,1.69,1.59,3.09,2.91,6.03,1.83,39.37-14.48,78.81-28.78,118.22-43.13.44-.16.85-.39,1.62-.74-22.85-21.48-45.56-42.83-68.72-64.6Z"/>
    <path class="cls-5" d="M18.79,298.1c9.61-3.48,18.31-6.48,26.87-9.84,2.64-1.04,3.59.57,4.97,1.87,26.29,24.71,52.58,49.41,78.86,74.13,50.37,47.37,100.76,94.72,151.05,142.17,2.5,2.36,4.55,2.38,7.47,1.3,21.29-7.87,42.65-15.57,63.94-23.45,2.77-1.02,4.58-.91,6.87,1.32,9.75,9.5,19.76,18.72,30.3,28.64-8.77,3.26-16.97,6.35-25.21,9.35-23.9,8.71-47.84,17.31-71.68,26.15-3.39,1.26-5.43.39-7.82-1.86-32.51-30.71-65.08-61.37-97.66-92.01-45.77-43.06-91.56-86.11-137.36-129.16-9.92-9.32-19.89-18.59-30.63-28.61Z"/>
    <path class="cls-6" d="M19.2,245.86c9.67-3.52,18.41-6.6,27.06-9.91,2.16-.83,3.04.44,4.22,1.55,22.89,21.53,45.78,43.06,68.68,64.57,48.84,45.87,97.69,91.74,146.53,137.6,4.97,4.67,10.1,9.17,14.84,14.05,2.39,2.47,4.45,2.52,7.46,1.4,20.84-7.72,41.76-15.19,62.59-22.93,3.58-1.33,5.86-.92,8.69,1.88,9.33,9.21,19.06,18.02,29.15,27.47-11.55,4.22-22.61,8.29-33.69,12.32-20.8,7.57-41.62,15.06-62.38,22.73-2.97,1.1-4.79.91-7.28-1.44-40.95-38.68-82.04-77.21-123.11-115.76-46.41-43.57-92.83-87.12-139.25-130.67-.85-.79-1.8-1.48-3.52-2.88Z"/>
    <path class="cls-1" d="M337.34,68.56c-20.6,7.49-40.73,14.82-60.87,22.15-11.6,4.22-23.28,8.26-34.76,12.79-4.03,1.59-6.61.9-9.62-1.99-15.59-14.94-31.36-29.69-47.07-44.5-3.48-3.28-6.99-6.51-11.03-10.27,12.78-4.69,24.89-9.15,37.01-13.57,20.11-7.34,40.24-14.66,60.36-21.97,2.14-.78,3.87-1.35,6.1.77,19.24,18.3,38.67,36.39,58.04,54.55.47.44.87.96,1.85,2.05Z"/>
    <path class="cls-6" d="M543.6,315.33c-18.61,6.77-36.29,13.22-53.97,19.65-37.7,13.71-75.41,27.37-113.06,41.2-3.58,1.31-5.99,1.01-8.77-1.7-8.8-8.59-17.86-16.9-26.8-25.34-.7-.66-1.6-1.25-1.62-2.58,27.48-10.01,55.01-20.04,82.55-30.07,28.3-10.3,56.61-20.57,84.89-30.94,2.57-.94,4.29-1.02,6.51,1.15,9.73,9.5,19.74,18.72,30.28,28.63Z"/>
    <path class="cls-5" d="M378.84,384.7c19.34-7.02,38-13.78,56.65-20.57,23.39-8.5,46.82-16.91,70.13-25.64,4.25-1.59,6.84-.84,9.97,2.27,9.17,9.1,18.72,17.83,28.67,27.21-9.5,3.51-18.42,6.86-27.38,10.12-46.58,16.94-93.17,33.84-139.72,50.85-3.85,1.41-7.04,1.99-9.42-2.83,12.92-4.73,25.9-9.48,39.62-14.51-9.54-9-18.67-17.62-28.53-26.92Z"/>
    <path class="cls-6" d="M291.89,227.08c-7.9,2.86-17.04,6.17-26.17,9.48-9.47,3.43-18.95,6.85-28.41,10.32-1.88.69-3.53,1.54-5.42-.25-10.2-9.7-20.49-19.31-31.25-29.42,15.65-5.7,31-10.35,45.5-16.9,10.78-4.87,18.55-4.3,25.65,5.54,2.85,3.95,7.38,6.66,10.81,10.24,3.32,3.47,6.22,7.33,9.29,10.99Z"/>
    <path class="cls-6" d="M336.73,120.94c-14.94,5.41-29.2,10.58-43.48,15.73-5.43,1.96-11.36,6.14-16.2,5.15-4.88-1-8.71-7.15-12.96-11.09-5.97-5.54-11.87-11.15-17.83-16.7-1.77-1.65-2.23-2.49.71-3.54,18.1-6.45,36.13-13.09,54.16-19.74,1.73-.64,2.96-.66,4.41.72,10.18,9.7,20.44,19.32,31.19,29.45Z"/>
    <path class="cls-6" d="M362.63,238.73c-9.02,3.26-17.16,6.08-25.18,9.18-2.56.99-4.2.64-6.14-1.27-5.91-5.8-12.01-11.39-18.63-17.61,9.31-3.37,18.07-6.49,26.78-9.74,1.34-.5,2.17-.25,3.09.61,6.5,6.11,13.01,12.21,20.07,18.84Z"/>
    <path class="cls-6" d="M174.79,99.42c9.21-3.36,17.72-6.46,26.22-9.58,1.49-.55,2.64-.61,3.98.68,6.31,6.09,12.76,12.04,19.7,18.55-9.23,3.37-17.83,6.52-26.44,9.63-1.07.39-2.18.74-3.24-.26-6.6-6.23-13.22-12.44-20.22-19.01Z"/>
    <path class="cls-1" d="M322.19,253.3c-9.36,3.43-18.05,6.58-26.7,9.84-1.86.7-2.77-.39-3.85-1.41-6.28-5.91-12.56-11.81-19.18-18.04,9.05-3.27,17.77-6.28,26.37-9.63,2.16-.84,3.02.19,4.22,1.31,6.17,5.78,12.34,11.56,19.15,17.93Z"/>
    <path class="cls-1" d="M284.2,202.15c8.89-3.25,17.09-6.27,25.31-9.25,1.53-.56,3.05-1.27,4.6.22,6.33,6.06,12.72,12.05,19.72,18.67-9.36,3.41-18.08,6.59-26.8,9.75-1.19.43-2.18.15-3.15-.77-6.35-6.06-12.75-12.06-19.69-18.61Z"/>
    <path class="cls-5" d="M325.43,162.34c-6.39,2.31-12.32,4.36-18.18,6.62-1.54.6-2.4.23-3.46-.79-6.35-6.04-12.75-12.04-19.67-18.55,6.47-2.39,12.44-4.62,18.42-6.8,1.16-.42,2.23-.15,3.19.76,6.43,6.16,12.89,12.29,19.7,18.76Z"/>
    <path class="cls-5" d="M240.98,255.07c6.16-2.23,11.44-4.1,16.69-6.07,1.95-.73,3.59-1.17,5.4.59,6.15,5.98,12.45,11.81,19.28,18.25-6.47,2.35-12.42,4.48-18.34,6.69-1.25.47-2.2.33-3.15-.58-6.44-6.14-12.9-12.26-19.88-18.89Z"/>
    <path class="cls-5" d="M272.5,191.08c9-3.28,17.55-6.25,25.97-9.54,3.9-1.52,4.67,1.88,7.24,3.63-9.23,3.34-17.98,6.48-26.71,9.69-3.69,1.35-4.14-2.19-6.49-3.77Z"/>
  </g>
</svg>